solid OpenSCAD_Model
  facet normal 0 0 1
    outer loop
      vertex 34.21921347068274 18.71792484085113 70
      vertex 0 45 70
      vertex 0 9.548914223909378 70
    endloop
  endfacet
  facet normal 0 0 -1
    outer loop
      vertex 34.219213470694704 18.717924840854337 62
      vertex 0 9.548914223909378 62
      vertex 0 45 62
    endloop
  endfacet
  facet normal 0 1 0
    outer loop
      vertex 4 45 70
      vertex 0 45 62
      vertex 0 45 70
    endloop
  endfacet
  facet normal 0 1 0
    outer loop
      vertex 4 45 70
      vertex 4 45 62
      vertex 0 45 62
    endloop
  endfacet
  facet normal 0 0 1
    outer loop
      vertex 4 45 70
      vertex 0 45 70
      vertex 34.21921347068274 18.71792484085113 70
    endloop
  endfacet
  facet normal 0.656242669297312 0.754549904905924 0
    outer loop
      vertex 4 45 70
      vertex 34.21921347068274 18.71792484085113 70
      vertex 4 45 62
    endloop
  endfacet
  facet normal 0 0 -1
    outer loop
      vertex 4 45 62
      vertex 34.219213470694704 18.717924840854337 62
      vertex 0 45 62
    endloop
  endfacet
  facet normal 0.6562426692971184 0.7545499049060923 1.2839698704292313e-12
    outer loop
      vertex 4 45 62
      vertex 34.21921347068274 18.71792484085113 70
      vertex 34.219213470694704 18.717924840854337 62
    endloop
  endfacet
  facet normal 9.431207729500325e-13 2.8882867899552806e-29 1
    outer loop
      vertex 34.219213470694704 18.717924840854337 7.999999999967727
      vertex 0 45 8
      vertex 0 9.548914223909378 8
    endloop
  endfacet
  facet normal 0 0 -1
    outer loop
      vertex 34.219213470694704 18.717924840854337 0
      vertex 0 9.548914223909378 0
      vertex 0 45 0
    endloop
  endfacet
  facet normal 0 1 0
    outer loop
      vertex 4 45 8
      vertex 0 45 0
      vertex 0 45 8
    endloop
  endfacet
  facet normal 0 1 0
    outer loop
      vertex 4 45 8
      vertex 4 45 0
      vertex 0 45 0
    endloop
  endfacet
  facet normal 0 -1.2279415100520862e-12 1
    outer loop
      vertex 4 45 8
      vertex 0 45 8
      vertex 34.219213470694704 18.717924840854337 7.999999999967727
    endloop
  endfacet
  facet normal 0.6562426692971184 0.7545499049060923 0
    outer loop
      vertex 4 45 8
      vertex 34.219213470694704 18.717924840854337 7.999999999967727
      vertex 4 45 0
    endloop
  endfacet
  facet normal 0 0 -1
    outer loop
      vertex 4 45 0
      vertex 34.219213470694704 18.717924840854337 0
      vertex 0 45 0
    endloop
  endfacet
  facet normal 0.6562426692971184 0.7545499049060922 1.1424078965632066e-16
    outer loop
      vertex 4 45 0
      vertex 34.219213470694704 18.717924840854337 7.999999999967727
      vertex 34.219213470694704 18.717924840854337 0
    endloop
  endfacet
  facet normal 0 0 1
    outer loop
      vertex 10.453988502774134 -28.977774791419506 70
      vertex 2.632576541461198 0.21213203512731482 70
      vertex 0 -28.977774791419506 70
    endloop
  endfacet
  facet normal 0 0 1
    outer loop
      vertex 2.632576541461198 0.21213203512731482 70
      vertex 0 9.548914223909378 70
      vertex 0 -28.977774791419506 70
    endloop
  endfacet
  facet normal 0 0 1
    outer loop
      vertex 2.632576541461198 0.21213203512731482 70
      vertex 46.38901647009731 11.93663477766629 70
      vertex 0 9.548914223909378 70
    endloop
  endfacet
  facet normal 0 -1 0
    outer loop
      vertex 10.453988502774134 -28.977774791419506 70
      vertex 0 -28.977774791419506 70
      vertex 0 -28.977774791419506 0
    endloop
  endfacet
  facet normal -0.2588190451510908 0.965925826276054 -4.641668336547003e-15
    outer loop
      vertex 0 9.548914223909378 62
      vertex 7.700495505862509 11.612255776439717 58.51074222354289
      vertex 7.374871712592799 11.52500514397919 58.351300804523746
    endloop
  endfacet
  facet normal -0.2588190451510875 0.9659258262760549 1.8939823384106335e-15
    outer loop
      vertex 0 9.548914223909378 62
      vertex 7.065911367919659 11.44221946911413 58.15958452674967
      vertex 6.776589928857202 11.364696023148744 57.9374397227784
    endloop
  endfacet
  facet normal -0.2588190451510896 0.9659258262760543 -1.4862550867475712e-15
    outer loop
      vertex 0 9.548914223909378 62
      vertex 6.776589928857202 11.364696023148744 57.9374397227784
      vertex 6.50969371902278 11.293181399246299 57.68700576850888
    endloop
  endfacet
  facet normal -0.25881904515108856 0.9659258262760545 4.218658149321542e-16
    outer loop
      vertex 0 9.548914223909378 62
      vertex 7.374871712592799 11.52500514397919 58.351300804523746
      vertex 7.065911367919659 11.44221946911413 58.15958452674967
    endloop
  endfacet
  facet normal -0.2588190451510874 0.9659258262760548 4.1722811772993834e-15
    outer loop
      vertex 0 9.548914223909378 62
      vertex 8.03964681259553 11.703131095209066 58.63637327578239
      vertex 7.700495505862509 11.612255776439717 58.51074222354289
    endloop
  endfacet
  facet normal -0.2588190451510881 0.9659258262760547 1.7566144664979166e-15
    outer loop
      vertex 0 9.548914223909378 62
      vertex 8.389059420309067 11.796755921289991 58.72698406553228
      vertex 8.03964681259553 11.703131095209066 58.63637327578239
    endloop
  endfacet
  facet normal -0.25881904515109083 0.965925826276054 -6.2164863365850945e-15
    outer loop
      vertex 0 9.548914223909378 62
      vertex 8.745368294582471 11.892228596426795 58.781701961354344
      vertex 8.389059420309067 11.796755921289991 58.72698406553228
    endloop
  endfacet
  facet normal -0.25881904515108856 0.9659258262760545 5.2415271126877577e-17
    outer loop
      vertex 0 9.548914223909378 62
      vertex 6.05321769148854 11.170869016279733 57.11116688547449
      vertex 5.868033987469048 11.121249192326326 56.79130759993879
    endloop
  endfacet
  facet normal -0.2588190451510886 0.9659258262760544 5.630556230032982e-17
    outer loop
      vertex 0 9.548914223909378 62
      vertex 6.267793094817421 11.228364322328853 57.410694479821856
      vertex 6.05321769148854 11.170869016279733 57.11116688547449
    endloop
  endfacet
  facet normal -0.25881904515108795 0.9659258262760548 1.4493177158931028e-15
    outer loop
      vertex 0 9.548914223909378 62
      vertex 6.50969371902278 11.293181399246299 57.68700576850888
      vertex 6.267793094817421 11.228364322328853 57.410694479821856
    endloop
  endfacet
  facet normal -0.2588190451510868 0.9659258262760552 1.8473326929299125e-15
    outer loop
      vertex 0 9.548914223909378 62
      vertex 5.868033987469048 11.121249192326326 56.79130759993879
      vertex 5.714025403060347 11.079982716498256 56.454197042987346
    endloop
  endfacet
  facet normal -0.25881904515109166 0.9659258262760537 -2.949711526144145e-15
    outer loop
      vertex 0 9.548914223909378 62
      vertex 5.714025403060347 11.079982716498256 56.454197042987346
      vertex 5.592675125119983 11.047467007516302 56.103081773566956
    endloop
  endfacet
  facet normal -0.258819045151089 0.9659258262760545 -1.9402282412695376e-16
    outer loop
      vertex 0 9.548914223909378 62
      vertex 5.592675125119983 11.047467007516302 56.103081773566956
      vertex 5.505151823161293 11.024015209432848 55.74134322366129
    endloop
  endfacet
  facet normal -0.25881904515108717 0.9659258262760548 1.3756513205514411e-15
    outer loop
      vertex 0 9.548914223909378 62
      vertex 5.505151823161293 11.024015209432848 55.74134322366129
      vertex 5.452298394427276 11.009853175883505 55.372465133252334
    endloop
  endfacet
  facet normal -0.25881904515108717 0.965925826276055 1.306080232596978e-15
    outer loop
      vertex 0 9.548914223909378 62
      vertex 5.452298394427276 11.009853175883505 55.372465133252334
      vertex 5.434623846329245 11.0051172949931 55
    endloop
  endfacet
  facet normal -0.25881904515109067 0.9659258262760541 -1.1986431648535118e-15
    outer loop
      vertex 0 9.548914223909378 62
      vertex 5.434623846329245 11.0051172949931 55
      vertex 5.452298394427276 11.009853175883505 54.627534866747666
    endloop
  endfacet
  facet normal -0.25881904515109044 0.9659258262760541 -1.913809352809532e-15
    outer loop
      vertex 0 9.548914223909378 62
      vertex 5.452298394427276 11.009853175883505 54.627534866747666
      vertex 5.505151823161293 11.024015209432848 54.25865677633871
    endloop
  endfacet
  facet normal -0.2588190451510876 0.9659258262760549 3.3450424442081407e-16
    outer loop
      vertex 0 9.548914223909378 62
      vertex 5.505151823161293 11.024015209432848 54.25865677633871
      vertex 5.592675125119983 11.047467007516302 53.896918226433044
    endloop
  endfacet
  facet normal -0.25881904515109166 0.9659258262760537 -1.259064142511621e-15
    outer loop
      vertex 0 9.548914223909378 62
      vertex 5.592675125119983 11.047467007516302 53.896918226433044
      vertex 5.714025403060347 11.079982716498254 53.545802957012654
    endloop
  endfacet
  facet normal -0.25881904515109033 0.9659258262760541 -3.365260900233787e-15
    outer loop
      vertex 0 9.548914223909378 62
      vertex 9.105141986178253 11.988629666567238 58.8
      vertex 8.745368294582471 11.892228596426795 58.781701961354344
    endloop
  endfacet
  facet normal -0.2588190451510842 0.9659258262760556 1.3487651828827231e-14
    outer loop
      vertex 0 9.548914223909378 62
      vertex 9.46491567777403 12.085030736707678 58.781701961354344
      vertex 9.105141986178253 11.988629666567238 58.8
    endloop
  endfacet
  facet normal -0.25881904515108595 0.9659258262760553 7.137241401114056e-15
    outer loop
      vertex 0 9.548914223909378 62
      vertex 9.821224552047434 12.18050341184448 58.72698406553228
      vertex 9.46491567777403 12.085030736707678 58.781701961354344
    endloop
  endfacet
  facet normal -0.2588190451510865 0.965925826276055 -1.8930491655957107e-15
    outer loop
      vertex 0 9.548914223909378 62
      vertex 10.17063715976097 12.274128237925405 58.63637327578239
      vertex 9.821224552047434 12.18050341184448 58.72698406553228
    endloop
  endfacet
  facet normal -0.2588190451510887 0.9659258262760545 -4.484897360005023e-16
    outer loop
      vertex 34.219213470694704 18.717924840854337 62
      vertex 10.17063715976097 12.274128237925405 58.63637327578239
      vertex 0 9.548914223909378 62
    endloop
  endfacet
  facet normal -0.2588190451510897 0.9659258262760542 4.075350821776956e-15
    outer loop
      vertex 34.219213470694704 18.717924840854337 62
      vertex 10.50978846649399 12.365003556694756 58.51074222354289
      vertex 10.17063715976097 12.274128237925405 58.63637327578239
    endloop
  endfacet
  facet normal -0.25881904515108894 0.9659258262760545 1.4358854887466897e-15
    outer loop
      vertex 34.219213470694704 18.717924840854337 62
      vertex 10.8354122597637 12.452254189155282 58.351300804523746
      vertex 10.50978846649399 12.365003556694756 58.51074222354289
    endloop
  endfacet
  facet normal -0.2588190451510883 0.9659258262760547 -3.49914622467993e-15
    outer loop
      vertex 34.219213470694704 18.717924840854337 62
      vertex 11.144372604436843 12.53503986402034 58.15958452674967
      vertex 10.8354122597637 12.452254189155282 58.351300804523746
    endloop
  endfacet
  facet normal -0.25881904515108994 0.9659258262760543 8.529458513105352e-15
    outer loop
      vertex 34.219213470694704 18.717924840854337 62
      vertex 11.4336940434993 12.612563309985731 57.9374397227784
      vertex 11.144372604436843 12.53503986402034 58.15958452674967
    endloop
  endfacet
  facet normal -0.25881904515108795 0.9659258262760548 -1.0750426769357956e-15
    outer loop
      vertex 34.219213470694704 18.717924840854337 62
      vertex 11.700590253333722 12.684077933888174 57.68700576850888
      vertex 11.4336940434993 12.612563309985731 57.9374397227784
    endloop
  endfacet
  facet normal -0.2588190451510898 0.9659258262760543 6.257085398113714e-15
    outer loop
      vertex 34.219213470694704 18.717924840854337 62
      vertex 11.94249087753908 12.748895010805622 57.410694479821856
      vertex 11.700590253333722 12.684077933888174 57.68700576850888
    endloop
  endfacet
  facet normal -0.25881904515108795 0.9659258262760548 -4.281817321307568e-15
    outer loop
      vertex 34.219213470694704 18.717924840854337 62
      vertex 12.15706628086796 12.80639031685474 57.11116688547449
      vertex 11.94249087753908 12.748895010805622 57.410694479821856
    endloop
  endfacet
  facet normal -0.2588190451510885 0.9659258262760546 -2.7552831728356204e-15
    outer loop
      vertex 34.219213470694704 18.717924840854337 62
      vertex 12.342249984887452 12.856010140808147 56.79130759993879
      vertex 12.15706628086796 12.80639031685474 57.11116688547449
    endloop
  endfacet
  facet normal -0.25881904515108917 0.9659258262760545 2.6030045870331133e-15
    outer loop
      vertex 34.219213470694704 18.717924840854337 62
      vertex 12.496258569296153 12.89727661663622 56.454197042987346
      vertex 12.342249984887452 12.856010140808147 56.79130759993879
    endloop
  endfacet
  facet normal -0.25881904515108783 0.9659258262760546 -1.7511044460373426e-15
    outer loop
      vertex 34.219213470694704 18.717924840854337 62
      vertex 12.617608847236518 12.929792325618171 56.103081773566956
      vertex 12.496258569296153 12.89727661663622 56.454197042987346
    endloop
  endfacet
  facet normal -0.258819045151089 0.9659258262760545 1.0851913839839731e-15
    outer loop
      vertex 34.219213470694704 18.717924840854337 62
      vertex 12.705132149195208 12.953244123701625 55.74134322366129
      vertex 12.617608847236518 12.929792325618171 56.103081773566956
    endloop
  endfacet
  facet normal -0.25881904515108856 0.9659258262760546 -2.2404006402509187e-15
    outer loop
      vertex 34.219213470694704 18.717924840854337 62
      vertex 12.757985577929224 12.967406157250968 55.372465133252334
      vertex 12.705132149195208 12.953244123701625 55.74134322366129
    endloop
  endfacet
  facet normal -0.25881904515108867 0.9659258262760545 6.41040117372715e-16
    outer loop
      vertex 34.219213470694704 18.717924840854337 62
      vertex 12.775660126027256 12.972142038141373 55
      vertex 12.757985577929224 12.967406157250968 55.372465133252334
    endloop
  endfacet
  facet normal -0.25881904515108917 0.9659258262760546 6.648665602149114e-16
    outer loop
      vertex 34.219213470694704 18.717924840854337 62
      vertex 12.757985577929224 12.967406157250968 54.627534866747666
      vertex 12.775660126027256 12.972142038141373 55
    endloop
  endfacet
  facet normal -0.2588190451510877 0.9659258262760548 -2.094820774785028e-15
    outer loop
      vertex 34.219213470694704 18.717924840854337 62
      vertex 12.705132149195208 12.953244123701623 54.25865677633871
      vertex 12.757985577929224 12.967406157250968 54.627534866747666
    endloop
  endfacet
  facet normal -0.25881904515108767 0.9659258262760549 1.3191335562817967e-16
    outer loop
      vertex 34.219213470694704 18.717924840854337 62
      vertex 11.94249087753908 12.74889501080562 52.589305520178144
      vertex 12.15706628086796 12.80639031685474 52.88883311452551
    endloop
  endfacet
  facet normal -0.2588190451510901 0.9659258262760543 4.072789143303123e-15
    outer loop
      vertex 34.219213470694704 18.717924840854337 62
      vertex 12.617608847236518 12.929792325618171 53.896918226433044
      vertex 12.705132149195208 12.953244123701623 54.25865677633871
    endloop
  endfacet
  facet normal -0.25881904515108994 0.9659258262760542 1.7811062280451176e-15
    outer loop
      vertex 34.219213470694704 18.717924840854337 62
      vertex 12.496258569296153 12.89727661663622 53.545802957012654
      vertex 12.617608847236518 12.929792325618171 53.896918226433044
    endloop
  endfacet
  facet normal -0.25881904515108967 0.9659258262760544 2.4698996092050777e-15
    outer loop
      vertex 34.219213470694704 18.717924840854337 62
      vertex 12.342249984887452 12.856010140808149 53.20869240006121
      vertex 12.496258569296153 12.89727661663622 53.545802957012654
    endloop
  endfacet
  facet normal -0.25881904515108667 0.9659258262760552 -4.124268435926632e-15
    outer loop
      vertex 34.219213470694704 18.717924840854337 62
      vertex 12.15706628086796 12.80639031685474 52.88883311452551
      vertex 12.342249984887452 12.856010140808149 53.20869240006121
    endloop
  endfacet
  facet normal -0.25881904515108867 0.9659258262760546 0
    outer loop
      vertex 0 9.548914223909378 62
      vertex 5.714025403060347 11.079982716498254 53.545802957012654
      vertex 0 9.548914223909378 8
    endloop
  endfacet
  facet normal -0.258819045151092 0.9659258262760536 4.573326761272325e-16
    outer loop
      vertex 5.714025403060347 11.079982716498254 53.545802957012654
      vertex 5.868033987469048 11.121249192326326 53.20869240006121
      vertex 0 9.548914223909378 8
    endloop
  endfacet
  facet normal -0.25881904515108867 0.9659258262760545 1.444342630636852e-18
    outer loop
      vertex 5.868033987469048 11.121249192326326 53.20869240006121
      vertex 6.05321769148854 11.170869016279733 52.88883311452551
      vertex 0 9.548914223909378 8
    endloop
  endfacet
  facet normal -0.25881904515108856 0.9659258262760545 -1.22639423184841e-17
    outer loop
      vertex 6.05321769148854 11.170869016279733 52.88883311452551
      vertex 6.267793094817421 11.228364322328853 52.589305520178144
      vertex 0 9.548914223909378 8
    endloop
  endfacet
  facet normal -0.25881904515109244 0.9659258262760535 5.584343583293887e-16
    outer loop
      vertex 6.267793094817421 11.228364322328853 52.589305520178144
      vertex 6.50969371902278 11.2931813992463 52.31299423149112
      vertex 0 9.548914223909378 8
    endloop
  endfacet
  facet normal -0.2588190451510863 0.9659258262760552 -4.0623278214727656e-16
    outer loop
      vertex 6.50969371902278 11.2931813992463 52.31299423149112
      vertex 6.776589928857201 11.364696023148744 52.0625602772216
      vertex 0 9.548914223909378 8
    endloop
  endfacet
  facet normal -0.2588190451510857 0.9659258262760554 -4.990892277896881e-16
    outer loop
      vertex 6.776589928857201 11.364696023148744 52.0625602772216
      vertex 7.065911367919659 11.44221946911413 51.84041547325033
      vertex 0 9.548914223909378 8
    endloop
  endfacet
  facet normal -0.2588190451510884 0.9659258262760546 -2.5251680670478857e-17
    outer loop
      vertex 7.065911367919659 11.44221946911413 51.84041547325033
      vertex 7.374871712592799 11.52500514397919 51.648699195476254
      vertex 0 9.548914223909378 8
    endloop
  endfacet
  facet normal -0.2588190451510925 0.9659258262760536 7.012397394257302e-16
    outer loop
      vertex 7.374871712592799 11.52500514397919 51.648699195476254
      vertex 7.700495505862509 11.612255776439717 51.48925777645711
      vertex 0 9.548914223909378 8
    endloop
  endfacet
  facet normal -0.25881904515108634 0.9659258262760552 -4.597894029347656e-16
    outer loop
      vertex 7.700495505862509 11.612255776439717 51.48925777645711
      vertex 8.03964681259553 11.703131095209066 51.36362672421761
      vertex 0 9.548914223909378 8
    endloop
  endfacet
  facet normal -0.2588190451510916 0.9659258262760537 5.898439656571572e-16
    outer loop
      vertex 8.03964681259553 11.703131095209066 51.36362672421761
      vertex 8.389059420309067 11.796755921289993 51.27301593446772
      vertex 0 9.548914223909378 8
    endloop
  endfacet
  facet normal -0.25881904515108733 0.9659258262760549 -3.0113844856554547e-16
    outer loop
      vertex 8.389059420309067 11.796755921289993 51.27301593446772
      vertex 8.745368294582471 11.892228596426795 51.218298038645656
      vertex 0 9.548914223909378 8
    endloop
  endfacet
  facet normal -0.25881904515109416 0.9659258262760531 1.4742851236063108e-15
    outer loop
      vertex 11.433694043499298 12.612563309985731 52.0625602772216
      vertex 0 9.548914223909378 8
      vertex 11.144372604436843 12.535039864020343 51.84041547325033
    endloop
  endfacet
  facet normal -0.25881904515108667 0.965925826276055 -5.941475619292897e-16
    outer loop
      vertex 11.94249087753908 12.74889501080562 52.589305520178144
      vertex 0 9.548914223909378 8
      vertex 11.700590253333722 12.684077933888174 52.31299423149112
    endloop
  endfacet
  facet normal -0.2588190451510807 0.9659258262760566 -2.268678633378024e-15
    outer loop
      vertex 11.700590253333722 12.684077933888174 52.31299423149112
      vertex 0 9.548914223909378 8
      vertex 11.433694043499298 12.612563309985731 52.0625602772216
    endloop
  endfacet
  facet normal -0.25881904515109044 0.9659258262760542 3.6800194727415515e-16
    outer loop
      vertex 8.745368294582471 11.892228596426795 51.218298038645656
      vertex 9.105141986178253 11.988629666567238 51.2
      vertex 0 9.548914223909378 8
    endloop
  endfacet
  facet normal -0.2588190451510851 0.9659258262760555 -8.389941265022663e-16
    outer loop
      vertex 9.46491567777403 12.085030736707678 51.218298038645656
      vertex 0 9.548914223909378 8
      vertex 9.105141986178253 11.988629666567238 51.2
    endloop
  endfacet
  facet normal -0.2588190451510872 0.9659258262760548 -3.2941750654369365e-16
    outer loop
      vertex 9.821224552047434 12.18050341184448 51.27301593446772
      vertex 0 9.548914223909378 8
      vertex 9.46491567777403 12.085030736707678 51.218298038645656
    endloop
  endfacet
  facet normal -0.2588190451510933 0.9659258262760534 1.1337369835301028e-15
    outer loop
      vertex 10.17063715976097 12.274128237925407 51.36362672421761
      vertex 0 9.548914223909378 8
      vertex 9.821224552047434 12.18050341184448 51.27301593446772
    endloop
  endfacet
  facet normal -0.25881904515108595 0.9659258262760553 -7.111613956349897e-16
    outer loop
      vertex 10.50978846649399 12.365003556694756 51.48925777645711
      vertex 0 9.548914223909378 8
      vertex 10.17063715976097 12.274128237925407 51.36362672421761
    endloop
  endfacet
  facet normal -0.2588190451510885 0.9659258262760545 -4.61776530120255e-17
    outer loop
      vertex 10.8354122597637 12.452254189155282 51.648699195476254
      vertex 0 9.548914223909378 8
      vertex 10.50978846649399 12.365003556694756 51.48925777645711
    endloop
  endfacet
  facet normal -0.258819045151092 0.9659258262760535 8.992459989013549e-16
    outer loop
      vertex 11.144372604436843 12.535039864020343 51.84041547325033
      vertex 0 9.548914223909378 8
      vertex 10.8354122597637 12.452254189155282 51.648699195476254
    endloop
  endfacet
  facet normal -0.2588190451510888 0.9659258262760545 6.006647585823548e-18
    outer loop
      vertex 34.219213470694704 18.717924840854337 62
      vertex 0 9.548914223909378 8
      vertex 11.94249087753908 12.74889501080562 52.589305520178144
    endloop
  endfacet
  facet normal 0 0 1
    outer loop
      vertex 34.21921347068274 18.71792484085113 70
      vertex 0 9.548914223909378 70
      vertex 46.38901647009731 11.93663477766629 70
    endloop
  endfacet
  facet normal -0.25881904515108867 0.9659258262760546 2.3469095929346955e-16
    outer loop
      vertex 34.21921347068274 18.71792484085113 70
      vertex 43.87847173213959 21.30611529201269 70
      vertex 34.219213470694704 18.717924840854337 62
    endloop
  endfacet
  facet normal 0 0 1
    outer loop
      vertex 34.21921347068274 18.71792484085113 70
      vertex 46.38901647009731 11.93663477766629 70
      vertex 43.87847173213959 21.30611529201269 70
    endloop
  endfacet
  facet normal -0.2588190451510882 0.9659258262760546 -3.321650294062098e-16
    outer loop
      vertex 34.219213470694704 18.717924840854337 62
      vertex 43.87847173213959 21.30611529201269 70
      vertex 0 9.548914223909378 8
    endloop
  endfacet
  facet normal 0.9659258262725872 0.2588190451640288 1.3135856601261856e-17
    outer loop
      vertex 46.38901647009731 11.93663477766629 70
      vertex 46.38901647009731 11.936634777666294 0
      vertex 43.87847173213959 21.30611529201269 70
    endloop
  endfacet
  facet normal 0 -1 0
    outer loop
      vertex 10.453988502774134 -28.977774791419506 70
      vertex 0 -28.977774791419506 0
      vertex 10.453988502774134 -28.977774791419506 0
    endloop
  endfacet
  facet normal -1 0 0
    outer loop
      vertex 0 -25.69148797032852 0.6823917455836295
      vertex 0 -20.466288276608047 0
      vertex 0 -26.40117166696403 0
    endloop
  endfacet
  facet normal -1 0 0
    outer loop
      vertex 0 -25.69148797032852 0.6823917455836295
      vertex 0 -18.041988410592875 2.270797031424223
      vertex 0 -20.466288276608047 0
    endloop
  endfacet
  facet normal 0 0 -1
    outer loop
      vertex 2.632576541461198 0.21213203512731482 0
      vertex 0 -28.977774791419506 0
      vertex 0 -26.40117166696403 0
    endloop
  endfacet
  facet normal 0 0 -1
    outer loop
      vertex 2.632576541461198 0.21213203512731482 0
      vertex 0 -26.40117166696403 0
      vertex 0 -20.466288276608047 0
    endloop
  endfacet
  facet normal 0 0 -1
    outer loop
      vertex 10.453988502774134 -28.977774791419506 0
      vertex 0 -28.977774791419506 0
      vertex 2.632576541461198 0.21213203512731482 0
    endloop
  endfacet
  facet normal 0 0 -1
    outer loop
      vertex 2.632576541461198 0.21213203512731482 0
      vertex 0 -20.466288276608047 0
      vertex 0 9.548914223909378 0
    endloop
  endfacet
  facet normal 0 0 -1
    outer loop
      vertex 2.632576541461198 0.21213203512731482 0
      vertex 0 9.548914223909378 0
      vertex 34.219213470694704 18.717924840854337 0
    endloop
  endfacet
  facet normal -0.2588190451510888 0.9659258262760545 3.771377991185251e-17
    outer loop
      vertex 43.87847173213959 21.30611529201269 70
      vertex 34.219213470694704 18.717924840854337 7.999999999967727
      vertex 0 9.548914223909378 8
    endloop
  endfacet
  facet normal -0.2588190451510885 0.9659258262760545 0
    outer loop
      vertex 43.87847173213959 21.30611529201269 70
      vertex 43.87847173213959 21.30611529201269 0
      vertex 34.219213470694704 18.717924840854337 7.999999999967727
    endloop
  endfacet
  facet normal 0.9659258262725872 0.2588190451640289 0
    outer loop
      vertex 43.87847173213959 21.30611529201269 70
      vertex 46.38901647009731 11.936634777666294 0
      vertex 43.87847173213959 21.30611529201269 0
    endloop
  endfacet
  facet normal 0 0 -1
    outer loop
      vertex 2.632576541461198 0.21213203512731482 0
      vertex 34.219213470694704 18.717924840854337 0
      vertex 43.87847173213959 21.30611529201269 0
    endloop
  endfacet
  facet normal 0 0 -1
    outer loop
      vertex 2.632576541461198 0.21213203512731482 0
      vertex 43.87847173213959 21.30611529201269 0
      vertex 46.38901647009731 11.936634777666294 0
    endloop
  endfacet
  facet normal -0.2588190451510885 0.9659258262760546 0
    outer loop
      vertex 34.219213470694704 18.717924840854337 7.999999999967727
      vertex 43.87847173213959 21.30611529201269 0
      vertex 34.219213470694704 18.717924840854337 0
    endloop
  endfacet
  facet normal 0.25881904510252135 -0.9659258262890681 7.030933520152487e-17
    outer loop
      vertex 2.632576541461198 0.21213203512731482 70
      vertex 9.020238455880412 1.923700886618982 57.68700576850888
      vertex 9.287134665718428 1.995215510508006 57.9374397227784
    endloop
  endfacet
  facet normal 0.2588190451025214 -0.9659258262890682 1.8669150330353622e-16
    outer loop
      vertex 2.632576541461198 0.21213203512731482 70
      vertex 9.287134665718428 1.995215510508006 57.9374397227784
      vertex 9.576456104784784 2.0727389564588465 58.15958452674967
    endloop
  endfacet
  facet normal 0.2588190451025212 -0.9659258262890682 8.870447122628313e-17
    outer loop
      vertex 2.632576541461198 0.21213203512731482 70
      vertex 8.778337831671793 1.8588838097136982 57.410694479821856
      vertex 9.020238455880412 1.923700886618982 57.68700576850888
    endloop
  endfacet
  facet normal 0.2588190451025201 -0.9659258262890684 -4.30152668897356e-16
    outer loop
      vertex 2.632576541461198 0.21213203512731482 70
      vertex 8.563762428340022 1.8013885036753678 57.11116688547449
      vertex 8.778337831671793 1.8588838097136982 57.410694479821856
    endloop
  endfacet
  facet normal 0.2588190451025203 -0.9659258262890685 -2.80266483496388e-16
    outer loop
      vertex 2.632576541461198 0.21213203512731482 70
      vertex 8.378578724318034 1.7517686797312724 56.79130759993879
      vertex 8.563762428340022 1.8013885036753678 57.11116688547449
    endloop
  endfacet
  facet normal 0.25881904510251946 -0.9659258262890686 -1.0597170540462278e-15
    outer loop
      vertex 2.632576541461198 0.21213203512731482 70
      vertex 10.211040242736184 2.2427752637525247 58.51074222354289
      vertex 10.550191549473775 2.3336505825048217 58.63637327578239
    endloop
  endfacet
  facet normal 0.2588190451025214 -0.9659258262890681 3.13777884861274e-16
    outer loop
      vertex 2.632576541461198 0.21213203512731482 70
      vertex 10.550191549473775 2.3336505825048217 58.63637327578239
      vertex 10.899604157192018 2.427275408568178 58.72698406553228
    endloop
  endfacet
  facet normal 0.25881904510252063 -0.9659258262890682 -7.266368499114173e-17
    outer loop
      vertex 2.632576541461198 0.21213203512731482 70
      vertex 10.899604157192018 2.427275408568178 58.72698406553228
      vertex 11.255913031470223 2.5227480836870653 58.781701961354344
    endloop
  endfacet
  facet normal 0.25881904510252096 -0.9659258262890682 -3.5808576135296345e-16
    outer loop
      vertex 2.632576541461198 0.21213203512731482 70
      vertex 11.255913031470223 2.5227480836870653 58.781701961354344
      vertex 11.615686723070853 2.619149153809418 58.8
    endloop
  endfacet
  facet normal 0.2588190451025201 -0.9659258262890684 -5.412795023934612e-16
    outer loop
      vertex 2.632576541461198 0.21213203512731482 70
      vertex 9.576456104784784 2.0727389564588465 58.15958452674967
      vertex 9.885416449462086 2.1555246313083707 58.351300804523746
    endloop
  endfacet
  facet normal 0.25881904510252224 -0.9659258262890679 1.2950487075910145e-15
    outer loop
      vertex 2.632576541461198 0.21213203512731482 70
      vertex 9.885416449462086 2.1555246313083707 58.351300804523746
      vertex 10.211040242736184 2.2427752637525247 58.51074222354289
    endloop
  endfacet
  facet normal 0.2588190451025204 -0.9659258262890683 -2.483190053757389e-16
    outer loop
      vertex 2.632576541461198 0.21213203512731482 70
      vertex 11.615686723070853 2.619149153809418 58.8
      vertex 11.975460414671476 2.715550223931768 58.781701961354344
    endloop
  endfacet
  facet normal 0.25881904510252274 -0.9659258262890679 1.875459421364174e-15
    outer loop
      vertex 2.632576541461198 0.21213203512731482 70
      vertex 11.975460414671476 2.715550223931768 58.781701961354344
      vertex 12.331769288949681 2.8110228990506565 58.72698406553228
    endloop
  endfacet
  facet normal 0.2588190451025215 -0.9659258262890681 1.013348621683187e-15
    outer loop
      vertex 2.632576541461198 0.21213203512731482 70
      vertex 12.331769288949681 2.8110228990506565 58.72698406553228
      vertex 12.681181896667924 2.9046477251140126 58.63637327578239
    endloop
  endfacet
  facet normal 0.25881904510251735 -0.9659258262890692 -3.4299886699582036e-15
    outer loop
      vertex 2.632576541461198 0.21213203512731482 70
      vertex 12.681181896667924 2.9046477251140126 58.63637327578239
      vertex 13.020333203405515 2.995523043866309 58.51074222354289
    endloop
  endfacet
  facet normal 0.25881904510252174 -0.9659258262890679 -9.280530194406757e-16
    outer loop
      vertex 2.632576541461198 0.21213203512731482 70
      vertex 13.020333203405515 2.995523043866309 58.51074222354289
      vertex 13.345956996679613 3.0827736763104623 58.351300804523746
    endloop
  endfacet
  facet normal 0.25881904510252074 -0.9659258262890683 1.0594401797733933e-18
    outer loop
      vertex 2.632576541461198 0.21213203512731482 70
      vertex 2.9223542864692416 0.2897777478867319 42
      vertex 7.945168583172392 1.6356367824198386 55
    endloop
  endfacet
  facet normal 0.25881904510252124 -0.9659258262890681 -5.512508389347198e-17
    outer loop
      vertex 2.632576541461198 0.21213203512731482 70
      vertex 8.224570139907259 1.7105022039109448 56.454197042987346
      vertex 8.378578724318034 1.7517686797312724 56.79130759993879
    endloop
  endfacet
  facet normal 0.25881904510252257 -0.9659258262890679 6.293408182987837e-16
    outer loop
      vertex 2.632576541461198 0.21213203512731482 70
      vertex 8.10321986196526 1.677986494935093 56.103081773566956
      vertex 8.224570139907259 1.7105022039109448 56.454197042987346
    endloop
  endfacet
  facet normal 0.25881904510251863 -0.9659258262890688 -8.603108941053914e-16
    outer loop
      vertex 2.632576541461198 0.21213203512731482 70
      vertex 8.01569656000539 1.6545346968560413 55.74134322366129
      vertex 8.10321986196526 1.677986494935093 56.103081773566956
    endloop
  endfacet
  facet normal 0.2588190451025203 -0.9659258262890684 -6.805656846727201e-16
    outer loop
      vertex 2.632576541461198 0.21213203512731482 70
      vertex 7.9628431312706605 1.640372663309355 55.372465133252334
      vertex 8.01569656000539 1.6545346968560413 55.74134322366129
    endloop
  endfacet
  facet normal 0.258819045102523 -0.9659258262890678 7.162523881804542e-16
    outer loop
      vertex 2.632576541461198 0.21213203512731482 70
      vertex 7.945168583172392 1.6356367824198386 55
      vertex 7.9628431312706605 1.640372663309355 55.372465133252334
    endloop
  endfacet
  facet normal 0.25881904510252074 -0.9659258262890682 4.8594529918915936e-17
    outer loop
      vertex 2.632576541461198 0.21213203512731482 70
      vertex 13.345956996679613 3.0827736763104623 58.351300804523746
      vertex 43.49123899061011 11.160177642192602 42
    endloop
  endfacet
  facet normal 0.9659258262890684 0.2588190451025208 0
    outer loop
      vertex 10.453988502774134 -28.977774791419506 70
      vertex 10.453988502774134 -28.977774791419506 0
      vertex 2.632576541461198 0.21213203512731482 70
    endloop
  endfacet
  facet normal 0.2588190451025206 -0.9659258262890682 8.919512548195182e-20
    outer loop
      vertex 2.632576541461198 0.21213203512731482 70
      vertex 2.9223542864692416 0.2897777478867319 28
      vertex 2.9223542864692416 0.2897777478867319 42
    endloop
  endfacet
  facet normal 0.2588190451025208 -0.9659258262890683 4.761866742547001e-16
    outer loop
      vertex 2.9223542864692416 0.2897777478867319 42
      vertex 7.962843131270661 1.6403726633093547 54.627534866747666
      vertex 7.945168583172392 1.6356367824198386 55
    endloop
  endfacet
  facet normal 0.25881904510251996 -0.9659258262890685 5.958445301674865e-16
    outer loop
      vertex 2.9223542864692416 0.2897777478867319 42
      vertex 8.01569656000539 1.6545346968560408 54.25865677633871
      vertex 7.962843131270661 1.6403726633093547 54.627534866747666
    endloop
  endfacet
  facet normal 0.25881904510252135 -0.9659258262890681 -6.333473431313538e-16
    outer loop
      vertex 2.9223542864692416 0.2897777478867319 42
      vertex 8.10321986196526 1.6779864949350936 53.896918226433044
      vertex 8.01569656000539 1.6545346968560408 54.25865677633871
    endloop
  endfacet
  facet normal 0.2588190451025207 -0.9659258262890683 -1.7607274399995693e-16
    outer loop
      vertex 2.9223542864692416 0.2897777478867319 42
      vertex 8.224570139907259 1.7105022039109448 53.545802957012654
      vertex 8.10321986196526 1.6779864949350936 53.896918226433044
    endloop
  endfacet
  facet normal 0.2588190451025211 -0.9659258262890682 -1.5097192518671885e-16
    outer loop
      vertex 2.9223542864692416 0.2897777478867319 42
      vertex 8.378578724318034 1.7517686797312724 53.20869240006121
      vertex 8.224570139907259 1.7105022039109448 53.545802957012654
    endloop
  endfacet
  facet normal 0.25881904510252035 -0.9659258262890684 4.208150807071442e-17
    outer loop
      vertex 2.9223542864692416 0.2897777478867319 42
      vertex 8.563762428340022 1.8013885036753678 52.88883311452551
      vertex 8.378578724318034 1.7517686797312724 53.20869240006121
    endloop
  endfacet
  facet normal 0.25881904510251935 -0.9659258262890685 8.49490349013606e-16
    outer loop
      vertex 2.9223542864692416 0.2897777478867319 42
      vertex 8.778337831671793 1.858883809713698 52.589305520178144
      vertex 8.563762428340022 1.8013885036753678 52.88883311452551
    endloop
  endfacet
  facet normal 0.25881904510252063 -0.9659258262890684 -5.436552446659211e-16
    outer loop
      vertex 2.9223542864692416 0.2897777478867319 42
      vertex 9.020238455880412 1.923700886618982 52.31299423149112
      vertex 8.778337831671793 1.858883809713698 52.589305520178144
    endloop
  endfacet
  facet normal 0.25881904510252096 -0.9659258262890681 -2.9318961221573817e-16
    outer loop
      vertex 2.9223542864692416 0.2897777478867319 42
      vertex 9.287134665718428 1.995215510508006 52.0625602772216
      vertex 9.020238455880412 1.923700886618982 52.31299423149112
    endloop
  endfacet
  facet normal 0.2588190451025209 -0.9659258262890682 -5.837195761008828e-17
    outer loop
      vertex 2.9223542864692416 0.2897777478867319 42
      vertex 9.576456104784784 2.0727389564588465 51.84041547325033
      vertex 9.287134665718428 1.995215510508006 52.0625602772216
    endloop
  endfacet
  facet normal 0.25881904510252085 -0.9659258262890683 8.67315949325478e-17
    outer loop
      vertex 2.9223542864692416 0.2897777478867319 42
      vertex 9.885416449462086 2.155524631308371 51.648699195476254
      vertex 9.576456104784784 2.0727389564588465 51.84041547325033
    endloop
  endfacet
  facet normal 0.258819045102522 -0.965925826289068 -7.382572219375875e-16
    outer loop
      vertex 2.9223542864692416 0.2897777478867319 42
      vertex 10.211040242736182 2.2427752637525242 51.48925777645711
      vertex 9.885416449462086 2.155524631308371 51.648699195476254
    endloop
  endfacet
  facet normal 0.2588190451025199 -0.9659258262890685 1.442782929476607e-15
    outer loop
      vertex 2.9223542864692416 0.2897777478867319 42
      vertex 10.550191549473775 2.3336505825048217 51.36362672421761
      vertex 10.211040242736182 2.2427752637525242 51.48925777645711
    endloop
  endfacet
  facet normal 0.25881904510251824 -0.965925826289069 8.944746315179408e-14
    outer loop
      vertex 43.49123899061011 11.160177642192602 42
      vertex 10.899604157192018 2.427275408568178 51.27301593446772
      vertex 10.550191549473775 2.3336505825048217 51.36362672421761
    endloop
  endfacet
  facet normal 0.2588190451025143 -0.96592582628907 -1.721103690635383e-14
    outer loop
      vertex 43.49123899061011 11.160177642192602 42
      vertex 11.255913031470223 2.5227480836870653 51.218298038645656
      vertex 10.899604157192018 2.427275408568178 51.27301593446772
    endloop
  endfacet
  facet normal 0.25881904510252723 -0.9659258262890664 1.8616978779679093e-14
    outer loop
      vertex 43.49123899061011 11.160177642192602 42
      vertex 11.615686723070853 2.6191491538094183 51.2
      vertex 11.255913031470223 2.5227480836870653 51.218298038645656
    endloop
  endfacet
  facet normal 0.25881904510251996 -0.9659258262890683 -9.265016404729421e-16
    outer loop
      vertex 43.49123899061011 11.160177642192602 42
      vertex 11.975460414671476 2.7155502239317686 51.218298038645656
      vertex 11.615686723070853 2.6191491538094183 51.2
    endloop
  endfacet
  facet normal 0.258819045102518 -0.965925826289069 -9.414021924227603e-15
    outer loop
      vertex 43.49123899061011 11.160177642192602 42
      vertex 12.331769288949681 2.8110228990506556 51.27301593446772
      vertex 11.975460414671476 2.7155502239317686 51.218298038645656
    endloop
  endfacet
  facet normal 0.25881904510252296 -0.9659258262890676 6.773405414051825e-15
    outer loop
      vertex 43.49123899061011 11.160177642192602 42
      vertex 12.681181896667924 2.904647725114012 51.36362672421761
      vertex 12.331769288949681 2.8110228990506556 51.27301593446772
    endloop
  endfacet
  facet normal 0.25881904510252074 -0.9659258262890682 7.937930488547353e-16
    outer loop
      vertex 43.49123899061011 11.160177642192602 42
      vertex 13.020333203405515 2.9955230438663096 51.48925777645711
      vertex 12.681181896667924 2.904647725114012 51.36362672421761
    endloop
  endfacet
  facet normal 0.25881904510252074 -0.9659258262890683 -2.770824761406462e-17
    outer loop
      vertex 2.9223542864692416 0.2897777478867319 42
      vertex 43.49123899061011 11.160177642192602 42
      vertex 10.550191549473775 2.3336505825048217 51.36362672421761
    endloop
  endfacet
  facet normal 0.258819045102506 -0.9659258262890722 -3.675074699828417e-14
    outer loop
      vertex 43.49123899061011 11.160177642192602 42
      vertex 13.345956996679613 3.0827736763104623 58.351300804523746
      vertex 13.654917341356915 3.165559351159987 58.15958452674967
    endloop
  endfacet
  facet normal 0.2588190451025194 -0.9659258262890688 -1.519020128569457e-14
    outer loop
      vertex 43.49123899061011 11.160177642192602 42
      vertex 13.654917341356915 3.165559351159987 58.15958452674967
      vertex 13.944238780423271 3.2430827971108274 57.9374397227784
    endloop
  endfacet
  facet normal 0.2588190451025213 -0.9659258262890682 -8.772535213949643e-15
    outer loop
      vertex 43.49123899061011 11.160177642192602 42
      vertex 13.944238780423271 3.2430827971108274 57.9374397227784
      vertex 14.211134990261288 3.314597420999852 57.68700576850888
    endloop
  endfacet
  facet normal 0.2588190451025207 -0.9659258262890683 -9.620325015164736e-17
    outer loop
      vertex 2.632576541461198 0.21213203512731482 70
      vertex 43.49123899061011 11.160177642192602 42
      vertex 46.38901647009731 11.93663477766629 70
    endloop
  endfacet
  facet normal 0.25881904510251913 -0.9659258262890688 6.668801977986469e-16
    outer loop
      vertex 43.49123899061011 11.160177642192602 42
      vertex 14.211134990261288 3.314597420999852 57.68700576850888
      vertex 14.453035614469906 3.3794144979051355 57.410694479821856
    endloop
  endfacet
  facet normal 0.2588190451025201 -0.9659258262890684 4.6392380198100584e-17
    outer loop
      vertex 43.49123899061011 11.160177642192602 42
      vertex 14.453035614469906 3.3794144979051355 57.410694479821856
      vertex 14.667611017801677 3.436909803943466 57.11116688547449
    endloop
  endfacet
  facet normal 0.2588190451025228 -0.9659258262890676 6.663359739657249e-16
    outer loop
      vertex 43.49123899061011 11.160177642192602 42
      vertex 14.667611017801677 3.436909803943466 57.11116688547449
      vertex 14.852794721823665 3.486529627887562 56.79130759993879
    endloop
  endfacet
  facet normal 0.2588190451025195 -0.9659258262890685 -1.1305683352058559e-15
    outer loop
      vertex 43.49123899061011 11.160177642192602 42
      vertex 14.852794721823665 3.486529627887562 56.79130759993879
      vertex 15.00680330623444 3.5277961037078893 56.454197042987346
    endloop
  endfacet
  facet normal 0.2588190451025212 -0.9659258262890681 -1.4839715357991165e-15
    outer loop
      vertex 43.49123899061011 11.160177642192602 42
      vertex 15.00680330623444 3.5277961037078893 56.454197042987346
      vertex 15.12815358417644 3.5603118126837403 56.103081773566956
    endloop
  endfacet
  facet normal 0.2588190451025198 -0.9659258262890686 7.562121795437333e-16
    outer loop
      vertex 43.49123899061011 11.160177642192602 42
      vertex 15.12815358417644 3.5603118126837403 56.103081773566956
      vertex 15.21567688613631 3.5837636107627926 55.74134322366129
    endloop
  endfacet
  facet normal 0.2588190451025207 -0.9659258262890683 1.7383816526713607e-15
    outer loop
      vertex 43.49123899061011 11.160177642192602 42
      vertex 15.21567688613631 3.5837636107627926 55.74134322366129
      vertex 15.268530314871038 3.597925644309479 55.372465133252334
    endloop
  endfacet
  facet normal 0.25881904510252096 -0.9659258262890682 8.570762440079453e-16
    outer loop
      vertex 43.49123899061011 11.160177642192602 42
      vertex 15.268530314871038 3.597925644309479 55.372465133252334
      vertex 15.286204862969308 3.6026615251989953 55
    endloop
  endfacet
  facet normal 0.25881904510252013 -0.9659258262890685 -2.1288401181276202e-16
    outer loop
      vertex 43.49123899061011 11.160177642192602 42
      vertex 15.286204862969308 3.6026615251989953 55
      vertex 15.268530314871038 3.5979256443094787 54.627534866747666
    endloop
  endfacet
  facet normal 0.2588190451025192 -0.9659258262890688 -1.844258447804052e-15
    outer loop
      vertex 43.49123899061011 11.160177642192602 42
      vertex 15.215676886136311 3.583763610762792 54.25865677633871
      vertex 15.12815358417644 3.5603118126837403 53.896918226433044
    endloop
  endfacet
  facet normal 0.25881904510252174 -0.9659258262890681 -2.730012863745268e-16
    outer loop
      vertex 43.49123899061011 11.160177642192602 42
      vertex 15.12815358417644 3.5603118126837403 53.896918226433044
      vertex 15.00680330623444 3.527796103707889 53.545802957012654
    endloop
  endfacet
  facet normal 0.25881904510252157 -0.9659258262890681 -1.1457873084357077e-15
    outer loop
      vertex 43.49123899061011 11.160177642192602 42
      vertex 15.00680330623444 3.527796103707889 53.545802957012654
      vertex 14.852794721823665 3.486529627887561 53.20869240006121
    endloop
  endfacet
  facet normal 0.25881904510252063 -0.9659258262890683 -1.1277868937787351e-15
    outer loop
      vertex 43.49123899061011 11.160177642192602 42
      vertex 14.852794721823665 3.486529627887561 53.20869240006121
      vertex 14.667611017801677 3.436909803943466 52.88883311452551
    endloop
  endfacet
  facet normal 0.2588190451025191 -0.9659258262890686 -3.556855769003391e-15
    outer loop
      vertex 43.49123899061011 11.160177642192602 42
      vertex 14.211134990261288 3.3145974209998514 52.31299423149112
      vertex 13.944238780423271 3.2430827971108283 52.0625602772216
    endloop
  endfacet
  facet normal 0.2588190451025209 -0.9659258262890682 1.6933968984367741e-15
    outer loop
      vertex 43.49123899061011 11.160177642192602 42
      vertex 13.654917341356915 3.165559351159987 51.84041547325033
      vertex 13.345956996679613 3.0827736763104623 51.648699195476254
    endloop
  endfacet
  facet normal 0.25881904510251846 -0.965925826289069 -5.682737185383798e-15
    outer loop
      vertex 43.49123899061011 11.160177642192602 42
      vertex 13.345956996679613 3.0827736763104623 51.648699195476254
      vertex 13.020333203405515 2.9955230438663096 51.48925777645711
    endloop
  endfacet
  facet normal 0.2588190451025216 -0.965925826289068 4.49257789654201e-15
    outer loop
      vertex 43.49123899061011 11.160177642192602 42
      vertex 13.944238780423271 3.2430827971108283 52.0625602772216
      vertex 13.654917341356915 3.165559351159987 51.84041547325033
    endloop
  endfacet
  facet normal 0.2588190451025208 -0.9659258262890683 -4.1247788125238106e-16
    outer loop
      vertex 43.49123899061011 11.160177642192602 42
      vertex 14.453035614469906 3.3794144979051346 52.589305520178144
      vertex 14.211134990261288 3.3145974209998514 52.31299423149112
    endloop
  endfacet
  facet normal 0.2588190451025222 -0.9659258262890679 3.2362996832418355e-15
    outer loop
      vertex 43.49123899061011 11.160177642192602 42
      vertex 14.667611017801677 3.436909803943466 52.88883311452551
      vertex 14.453035614469906 3.3794144979051346 52.589305520178144
    endloop
  endfacet
  facet normal 0.2588190451025212 -0.9659258262890682 8.547671744883225e-16
    outer loop
      vertex 43.49123899061011 11.160177642192602 42
      vertex 15.268530314871038 3.5979256443094787 54.627534866747666
      vertex 15.215676886136311 3.583763610762792 54.25865677633871
    endloop
  endfacet
  facet normal 0.25881904510252046 -0.9659258262890683 -4.9023684225197855e-17
    outer loop
      vertex 46.38901647009731 11.93663477766629 70
      vertex 43.49123899061011 11.160177642192602 42
      vertex 46.38901647009731 11.936634777666294 0
    endloop
  endfacet
  facet normal 0.25881904510252063 -0.9659258262890682 0
    outer loop
      vertex 2.632576541461198 0.21213203512731482 70
      vertex 2.632576541461198 0.21213203512731482 0
      vertex 2.9223542864692416 0.2897777478867319 28
    endloop
  endfacet
  facet normal 0.9659258262890684 0.2588190451025208 0
    outer loop
      vertex 2.632576541461198 0.21213203512731482 70
      vertex 10.453988502774134 -28.977774791419506 0
      vertex 2.632576541461198 0.21213203512731482 0
    endloop
  endfacet
  facet normal 0.2588190451025208 -0.9659258262890683 -1.5936464965455085e-18
    outer loop
      vertex 2.9223542864692416 0.2897777478867319 28
      vertex 2.632576541461198 0.21213203512731482 0
      vertex 46.38901647009731 11.936634777666294 0
    endloop
  endfacet
  facet normal 0.2588190451025208 -0.9659258262890683 -3.602658036284071e-17
    outer loop
      vertex 2.9223542864692416 0.2897777478867319 28
      vertex 46.38901647009731 11.936634777666294 0
      vertex 43.49123899061011 11.160177642192602 28
    endloop
  endfacet
  facet normal 0.2588190451025211 -0.9659258262890681 0
    outer loop
      vertex 43.49123899061011 11.160177642192602 42
      vertex 43.49123899061011 11.160177642192602 28
      vertex 46.38901647009731 11.936634777666294 0
    endloop
  endfacet
  facet normal -0.9659258262890685 -0.2588190451025198 2.873391603068075e-18
    outer loop
      vertex 4.035276180410079 -3.863703305156271 42.85022624582052
      vertex 3 3.552713678800501e-15 42
      vertex 3 3.552713678800501e-15 28
    endloop
  endfacet
  facet normal -0.9659258262890682 -0.25881904510252113 0
    outer loop
      vertex 3 3.552713678800501e-15 42
      vertex 2.9223542864692416 0.2897777478867319 42
      vertex 3 3.552713678800501e-15 28
    endloop
  endfacet
  facet normal -0.053811505231052055 0.20082727155404467 0.9781476007765528
    outer loop
      vertex 4.035276180410079 -3.863703305156271 42.85022624582052
      vertex 43.568884704140864 10.870399894305876 42
      vertex 3 3.552713678800501e-15 42
    endloop
  endfacet
  facet normal 0 0 1
    outer loop
      vertex 3 3.552713678800501e-15 42
      vertex 43.49123899061011 11.160177642192602 42
      vertex 2.9223542864692416 0.2897777478867319 42
    endloop
  endfacet
  facet normal 0.25881904510252085 -0.9659258262890682 0
    outer loop
      vertex 4.035276180410079 -3.863703305156271 42.85022624582052
      vertex 4.035276180410079 -3.863703305156271 27.149773754179478
      vertex 44.60416088455095 7.006696589149605 42.85022624582052
    endloop
  endfacet
  facet normal -0.053811505231052076 0.2008272715540447 0.9781476007765528
    outer loop
      vertex 4.035276180410079 -3.863703305156271 42.85022624582052
      vertex 44.60416088455095 7.006696589149605 42.85022624582052
      vertex 43.568884704140864 10.870399894305876 42
    endloop
  endfacet
  facet normal 0 0 1
    outer loop
      vertex 3 3.552713678800501e-15 42
      vertex 43.568884704140864 10.870399894305876 42
      vertex 43.49123899061011 11.160177642192602 42
    endloop
  endfacet
  facet normal 0.965925826289068 0.2588190451025217 6.544713268636387e-18
    outer loop
      vertex 44.60416088455095 7.006696589149605 42.85022624582052
      vertex 43.568884704140864 10.870399894305876 28
      vertex 43.568884704140864 10.870399894305876 42
    endloop
  endfacet
  facet normal 0.9659258262890691 0.2588190451025177 -3.6485850728039837e-19
    outer loop
      vertex 43.568884704140864 10.870399894305876 42
      vertex 43.49123899061011 11.160177642192602 28
      vertex 43.49123899061011 11.160177642192602 42
    endloop
  endfacet
  facet normal -0.9659258262890685 -0.2588190451025198 0
    outer loop
      vertex 4.035276180410079 -3.863703305156271 42.85022624582052
      vertex 3 3.552713678800501e-15 28
      vertex 4.035276180410079 -3.863703305156271 27.149773754179478
    endloop
  endfacet
  facet normal -0.9659258262890682 -0.25881904510252113 0
    outer loop
      vertex 2.9223542864692416 0.2897777478867319 42
      vertex 2.9223542864692416 0.2897777478867319 28
      vertex 3 3.552713678800501e-15 28
    endloop
  endfacet
  facet normal -0.053811505231052055 0.20082727155404462 -0.9781476007765528
    outer loop
      vertex 4.035276180410079 -3.863703305156271 27.149773754179478
      vertex 3 3.552713678800501e-15 28
      vertex 44.60416088455095 7.006696589149605 27.149773754179478
    endloop
  endfacet
  facet normal 0 0 -1
    outer loop
      vertex 3 3.552713678800501e-15 28
      vertex 2.9223542864692416 0.2897777478867319 28
      vertex 43.568884704140864 10.870399894305876 28
    endloop
  endfacet
  facet normal 0.25881904510252085 -0.9659258262890682 0
    outer loop
      vertex 44.60416088455095 7.006696589149605 42.85022624582052
      vertex 4.035276180410079 -3.863703305156271 27.149773754179478
      vertex 44.60416088455095 7.006696589149605 27.149773754179478
    endloop
  endfacet
  facet normal -0.05381150523105208 0.20082727155404473 -0.9781476007765528
    outer loop
      vertex 3 3.552713678800501e-15 28
      vertex 43.568884704140864 10.870399894305876 28
      vertex 44.60416088455095 7.006696589149605 27.149773754179478
    endloop
  endfacet
  facet normal 0 0 -1
    outer loop
      vertex 2.9223542864692416 0.2897777478867319 28
      vertex 43.49123899061011 11.160177642192602 28
      vertex 43.568884704140864 10.870399894305876 28
    endloop
  endfacet
  facet normal 0.965925826289068 0.2588190451025217 0
    outer loop
      vertex 44.60416088455095 7.006696589149605 42.85022624582052
      vertex 44.60416088455095 7.006696589149605 27.149773754179478
      vertex 43.568884704140864 10.870399894305876 28
    endloop
  endfacet
  facet normal 0.9659258262890691 0.2588190451025177 0
    outer loop
      vertex 43.568884704140864 10.870399894305876 42
      vertex 43.568884704140864 10.870399894305876 28
      vertex 43.49123899061011 11.160177642192602 28
    endloop
  endfacet
  facet normal 0.5754013429116704 0.15417832515696553 -0.8032075314806499
    outer loop
      vertex 9.576456104784784 2.0727389564588465 58.15958452674967
      vertex 9.287134665718428 1.995215510508006 57.9374397227784
      vertex 6.776589928857202 11.364696023148744 57.9374397227784
    endloop
  endfacet
  facet normal 0.8285022163462908 0.2219964997973839 -0.5141027441932147
    outer loop
      vertex 8.563762428340022 1.8013885036753678 57.11116688547449
      vertex 8.378578724318034 1.7517686797312724 56.79130759993879
      vertex 5.868033987469048 11.121249192326326 56.79130759993879
    endloop
  endfacet
  facet normal 0.77583889852705 0.20788540631697477 -0.5956993044924261
    outer loop
      vertex 8.778337831671793 1.8588838097136982 57.410694479821856
      vertex 8.563762428340022 1.8013885036753678 57.11116688547449
      vertex 6.05321769148854 11.170869016279733 57.11116688547449
    endloop
  endfacet
  facet normal 0.6486761383624239 0.17381224742355067 -0.7409511253549642
    outer loop
      vertex 9.287134665718428 1.995215510508006 57.9374397227784
      vertex 9.020238455880412 1.923700886618982 57.68700576850888
      vertex 6.50969371902278 11.293181399246299 57.68700576850888
    endloop
  endfacet
  facet normal 0.7157038279983103 0.19177226273201048 -0.6715589548470109
    outer loop
      vertex 9.020238455880412 1.923700886618982 57.68700576850888
      vertex 8.778337831671793 1.8588838097136982 57.410694479821856
      vertex 6.267793094817421 11.228364322328853 57.410694479821856
    endloop
  endfacet
  facet normal 0.4965851179823114 0.13305958133667412 -0.8577286100002743
    outer loop
      vertex 9.885416449462086 2.1555246313083707 58.351300804523746
      vertex 9.576456104784784 2.0727389564588465 58.15958452674967
      vertex 7.065911367919659 11.44221946911413 58.15958452674967
    endloop
  endfacet
  facet normal 0.41298650690575583 0.11065940101034757 -0.9039892931234381
    outer loop
      vertex 10.211040242736184 2.2427752637525247 58.51074222354289
      vertex 9.885416449462086 2.1555246313083707 58.351300804523746
      vertex 7.374871712592799 11.52500514397919 58.351300804523746
    endloop
  endfacet
  facet normal 0.32541061000627225 0.08719351015969966 -0.9415440651830248
    outer loop
      vertex 10.550191549473775 2.3336505825048217 58.63637327578239
      vertex 10.211040242736184 2.2427752637525247 58.51074222354289
      vertex 7.700495505862509 11.612255776439717 58.51074222354289
    endloop
  endfacet
  facet normal 0.23470083104494252 0.06288789814140575 -0.97003125319454
    outer loop
      vertex 10.899604157192018 2.427275408568178 58.72698406553228
      vertex 10.550191549473775 2.3336505825048217 58.63637327578239
      vertex 8.03964681259553 11.703131095209066 58.63637327578239
    endloop
  endfacet
  facet normal 0.14173075478006478 0.03797664128597182 -0.9891765099647837
    outer loop
      vertex 11.255913031470223 2.5227480836870653 58.781701961354344
      vertex 10.899604157192018 2.427275408568178 58.72698406553228
      vertex 8.389059420309067 11.796755921289991 58.72698406553228
    endloop
  endfacet
  facet normal 0.04739573386879782 0.012699648614824787 -0.9987954562051723
    outer loop
      vertex 11.615686723070853 2.619149153809418 58.8
      vertex 11.255913031470223 2.5227480836870653 58.781701961354344
      vertex 8.745368294582471 11.892228596426795 58.781701961354344
    endloop
  endfacet
  facet normal -0.047395733868798764 -0.012699648614825039 -0.9987954562051721
    outer loop
      vertex 11.615686723070853 2.619149153809418 58.8
      vertex 9.105141986178253 11.988629666567238 58.8
      vertex 11.975460414671476 2.715550223931768 58.781701961354344
    endloop
  endfacet
  facet normal -0.14173075478006467 -0.03797664128597179 -0.9891765099647836
    outer loop
      vertex 11.975460414671476 2.715550223931768 58.781701961354344
      vertex 9.46491567777403 12.085030736707678 58.781701961354344
      vertex 12.331769288949681 2.8110228990506565 58.72698406553228
    endloop
  endfacet
  facet normal 0.9369782397681538 0.25106256267141164 -0.24298017990329085
    outer loop
      vertex 8.10321986196526 1.677986494935093 56.103081773566956
      vertex 8.01569656000539 1.6545346968560413 55.74134322366129
      vertex 5.505151823161293 11.024015209432848 55.74134322366129
    endloop
  endfacet
  facet normal 0.9554711377334698 0.2560177197469293 -0.14673047445534812
    outer loop
      vertex 8.01569656000539 1.6545346968560413 55.74134322366129
      vertex 7.9628431312706605 1.640372663309355 55.372465133252334
      vertex 5.452298394427276 11.009853175883505 55.372465133252334
    endloop
  endfacet
  facet normal 0.9647623263287483 0.2585072862277593 -0.04906767432741214
    outer loop
      vertex 7.9628431312706605 1.640372663309355 55.372465133252334
      vertex 7.945168583172392 1.6356367824198386 55
      vertex 5.434623846329245 11.0051172949931 55
    endloop
  endfacet
  facet normal 0.9647623263287483 0.2585072862277595 0.04906767432741428
    outer loop
      vertex 7.962843131270661 1.6403726633093547 54.627534866747666
      vertex 5.452298394427276 11.009853175883505 54.627534866747666
      vertex 7.945168583172392 1.6356367824198386 55
    endloop
  endfacet
  facet normal 0.8731866049167195 0.2339696456291088 -0.4275550934303111
    outer loop
      vertex 8.378578724318034 1.7517686797312724 56.79130759993879
      vertex 8.224570139907259 1.7105022039109448 56.454197042987346
      vertex 5.714025403060347 11.079982716498256 56.454197042987346
    endloop
  endfacet
  facet normal 0.9094617291494864 0.24368953587261738 -0.33688985339219496
    outer loop
      vertex 8.224570139907259 1.7105022039109448 56.454197042987346
      vertex 8.10321986196526 1.677986494935093 56.103081773566956
      vertex 5.592675125119983 11.047467007516302 56.103081773566956
    endloop
  endfacet
  facet normal 0.9094617291494864 0.24368953587261735 -0.3368898533921945
    outer loop
      vertex 8.224570139907259 1.7105022039109448 56.454197042987346
      vertex 5.592675125119983 11.047467007516302 56.103081773566956
      vertex 5.714025403060347 11.079982716498256 56.454197042987346
    endloop
  endfacet
  facet normal 0.936978239768154 0.2510625626714117 -0.24298017990329024
    outer loop
      vertex 8.10321986196526 1.677986494935093 56.103081773566956
      vertex 5.505151823161293 11.024015209432848 55.74134322366129
      vertex 5.592675125119983 11.047467007516302 56.103081773566956
    endloop
  endfacet
  facet normal 0.8731866049167187 0.23396964562910855 -0.42755509343031267
    outer loop
      vertex 8.378578724318034 1.7517686797312724 56.79130759993879
      vertex 5.714025403060347 11.079982716498256 56.454197042987346
      vertex 5.868033987469048 11.121249192326326 56.79130759993879
    endloop
  endfacet
  facet normal 0.9554711377334699 0.2560177197469293 -0.14673047445534732
    outer loop
      vertex 8.01569656000539 1.6545346968560413 55.74134322366129
      vertex 5.452298394427276 11.009853175883505 55.372465133252334
      vertex 5.505151823161293 11.024015209432848 55.74134322366129
    endloop
  endfacet
  facet normal 0.9647623263287483 0.25850728622775937 -0.04906767432741232
    outer loop
      vertex 7.9628431312706605 1.640372663309355 55.372465133252334
      vertex 5.434623846329245 11.0051172949931 55
      vertex 5.452298394427276 11.009853175883505 55.372465133252334
    endloop
  endfacet
  facet normal 0.9647623263287483 0.25850728622775937 0.04906767432741183
    outer loop
      vertex 7.945168583172392 1.6356367824198386 55
      vertex 5.452298394427276 11.009853175883505 54.627534866747666
      vertex 5.434623846329245 11.0051172949931 55
    endloop
  endfacet
  facet normal 0.9554711377334701 0.25601771974692933 0.1467304744553457
    outer loop
      vertex 8.01569656000539 1.6545346968560408 54.25865677633871
      vertex 5.505151823161293 11.024015209432848 54.25865677633871
      vertex 7.962843131270661 1.6403726633093547 54.627534866747666
    endloop
  endfacet
  facet normal 0.9369782397681536 0.25106256267141164 0.2429801799032914
    outer loop
      vertex 8.10321986196526 1.6779864949350936 53.896918226433044
      vertex 5.592675125119983 11.047467007516302 53.896918226433044
      vertex 8.01569656000539 1.6545346968560408 54.25865677633871
    endloop
  endfacet
  facet normal 0.9094617291494865 0.24368953587261744 0.3368898533921947
    outer loop
      vertex 8.224570139907259 1.7105022039109448 53.545802957012654
      vertex 5.714025403060347 11.079982716498254 53.545802957012654
      vertex 8.10321986196526 1.6779864949350936 53.896918226433044
    endloop
  endfacet
  facet normal 0.8731866049167195 0.23396964562910874 0.4275550934303111
    outer loop
      vertex 8.378578724318034 1.7517686797312724 53.20869240006121
      vertex 5.868033987469048 11.121249192326326 53.20869240006121
      vertex 8.224570139907259 1.7105022039109448 53.545802957012654
    endloop
  endfacet
  facet normal 0.828502216346291 0.22199649979738395 0.5141027441932147
    outer loop
      vertex 8.563762428340022 1.8013885036753678 52.88883311452551
      vertex 6.05321769148854 11.170869016279733 52.88883311452551
      vertex 8.378578724318034 1.7517686797312724 53.20869240006121
    endloop
  endfacet
  facet normal 0.7758388985270499 0.20788540631697477 0.595699304492426
    outer loop
      vertex 8.778337831671793 1.858883809713698 52.589305520178144
      vertex 6.267793094817421 11.228364322328853 52.589305520178144
      vertex 8.563762428340022 1.8013885036753678 52.88883311452551
    endloop
  endfacet
  facet normal 0.9554711377334699 0.2560177197469294 0.14673047445534718
    outer loop
      vertex 7.962843131270661 1.6403726633093547 54.627534866747666
      vertex 5.505151823161293 11.024015209432848 54.25865677633871
      vertex 5.452298394427276 11.009853175883505 54.627534866747666
    endloop
  endfacet
  facet normal 0.9369782397681539 0.25106256267141175 0.24298017990329066
    outer loop
      vertex 8.01569656000539 1.6545346968560408 54.25865677633871
      vertex 5.592675125119983 11.047467007516302 53.896918226433044
      vertex 5.505151823161293 11.024015209432848 54.25865677633871
    endloop
  endfacet
  facet normal 0.9094617291494871 0.24368953587261755 0.336889853392193
    outer loop
      vertex 8.10321986196526 1.6779864949350936 53.896918226433044
      vertex 5.714025403060347 11.079982716498254 53.545802957012654
      vertex 5.592675125119983 11.047467007516302 53.896918226433044
    endloop
  endfacet
  facet normal 0.8731866049167183 0.23396964562910852 0.42755509343031367
    outer loop
      vertex 8.224570139907259 1.7105022039109448 53.545802957012654
      vertex 5.868033987469048 11.121249192326326 53.20869240006121
      vertex 5.714025403060347 11.079982716498254 53.545802957012654
    endloop
  endfacet
  facet normal -0.23470083104494252 -0.06288789814140573 -0.9700312531945398
    outer loop
      vertex 12.331769288949681 2.8110228990506565 58.72698406553228
      vertex 9.821224552047434 12.18050341184448 58.72698406553228
      vertex 12.681181896667924 2.9046477251140126 58.63637327578239
    endloop
  endfacet
  facet normal -0.3254106100062723 -0.08719351015969969 -0.9415440651830248
    outer loop
      vertex 12.681181896667924 2.9046477251140126 58.63637327578239
      vertex 10.17063715976097 12.274128237925405 58.63637327578239
      vertex 13.020333203405515 2.995523043866309 58.51074222354289
    endloop
  endfacet
  facet normal -0.41298650690575606 -0.11065940101034769 -0.9039892931234379
    outer loop
      vertex 13.020333203405515 2.995523043866309 58.51074222354289
      vertex 10.50978846649399 12.365003556694756 58.51074222354289
      vertex 13.345956996679613 3.0827736763104623 58.351300804523746
    endloop
  endfacet
  facet normal -0.49658511798231125 -0.1330595813366742 -0.8577286100002744
    outer loop
      vertex 13.345956996679613 3.0827736763104623 58.351300804523746
      vertex 10.8354122597637 12.452254189155282 58.351300804523746
      vertex 13.654917341356915 3.165559351159987 58.15958452674967
    endloop
  endfacet
  facet normal -0.5754013429116704 -0.15417832515696558 -0.8032075314806499
    outer loop
      vertex 13.654917341356915 3.165559351159987 58.15958452674967
      vertex 11.144372604436843 12.53503986402034 58.15958452674967
      vertex 13.944238780423271 3.2430827971108274 57.9374397227784
    endloop
  endfacet
  facet normal -0.6486761383624238 -0.17381224742355067 -0.7409511253549644
    outer loop
      vertex 13.944238780423271 3.2430827971108274 57.9374397227784
      vertex 11.4336940434993 12.612563309985731 57.9374397227784
      vertex 14.211134990261288 3.314597420999852 57.68700576850888
    endloop
  endfacet
  facet normal -0.7157038279983104 -0.1917722627320103 -0.6715589548470109
    outer loop
      vertex 14.211134990261288 3.314597420999852 57.68700576850888
      vertex 11.700590253333722 12.684077933888174 57.68700576850888
      vertex 14.453035614469906 3.3794144979051355 57.410694479821856
    endloop
  endfacet
  facet normal -0.7758388985270499 -0.2078854063169746 -0.5956993044924263
    outer loop
      vertex 14.453035614469906 3.3794144979051355 57.410694479821856
      vertex 11.94249087753908 12.748895010805622 57.410694479821856
      vertex 14.667611017801677 3.436909803943466 57.11116688547449
    endloop
  endfacet
  facet normal -0.8285022163462907 -0.2219964997973839 -0.5141027441932149
    outer loop
      vertex 14.667611017801677 3.436909803943466 57.11116688547449
      vertex 12.15706628086796 12.80639031685474 57.11116688547449
      vertex 14.852794721823665 3.486529627887562 56.79130759993879
    endloop
  endfacet
  facet normal -0.8731866049167196 -0.23396964562910888 -0.42755509343031106
    outer loop
      vertex 14.852794721823665 3.486529627887562 56.79130759993879
      vertex 12.342249984887452 12.856010140808147 56.79130759993879
      vertex 15.00680330623444 3.5277961037078893 56.454197042987346
    endloop
  endfacet
  facet normal -0.9094617291494865 -0.24368953587261738 -0.33688985339219446
    outer loop
      vertex 15.12815358417644 3.5603118126837403 56.103081773566956
      vertex 15.00680330623444 3.5277961037078893 56.454197042987346
      vertex 12.496258569296153 12.89727661663622 56.454197042987346
    endloop
  endfacet
  facet normal -0.9369782397681538 -0.25106256267141164 -0.24298017990329115
    outer loop
      vertex 15.21567688613631 3.5837636107627926 55.74134322366129
      vertex 15.12815358417644 3.5603118126837403 56.103081773566956
      vertex 12.617608847236518 12.929792325618171 56.103081773566956
    endloop
  endfacet
  facet normal -0.9554711377334701 -0.2560177197469293 -0.146730474455346
    outer loop
      vertex 15.268530314871038 3.597925644309479 55.372465133252334
      vertex 15.21567688613631 3.5837636107627926 55.74134322366129
      vertex 12.705132149195208 12.953244123701625 55.74134322366129
    endloop
  endfacet
  facet normal -0.964762326328748 -0.2585072862277593 -0.04906767432741658
    outer loop
      vertex 15.286204862969308 3.6026615251989953 55
      vertex 15.268530314871038 3.597925644309479 55.372465133252334
      vertex 12.757985577929224 12.967406157250968 55.372465133252334
    endloop
  endfacet
  facet normal -0.9647623263287481 -0.2585072862277593 0.049067674327416884
    outer loop
      vertex 15.286204862969308 3.6026615251989953 55
      vertex 12.775660126027256 12.972142038141373 55
      vertex 15.268530314871038 3.5979256443094787 54.627534866747666
    endloop
  endfacet
  facet normal -0.9554711377334708 -0.25601771974692955 0.14673047445534154
    outer loop
      vertex 15.268530314871038 3.5979256443094787 54.627534866747666
      vertex 12.757985577929224 12.967406157250968 54.627534866747666
      vertex 15.215676886136311 3.583763610762792 54.25865677633871
    endloop
  endfacet
  facet normal -0.9369782397681528 -0.25106256267141164 0.24298017990329518
    outer loop
      vertex 15.215676886136311 3.583763610762792 54.25865677633871
      vertex 12.705132149195208 12.953244123701623 54.25865677633871
      vertex 15.12815358417644 3.5603118126837403 53.896918226433044
    endloop
  endfacet
  facet normal -0.9094617291494865 -0.24368953587261732 0.33688985339219474
    outer loop
      vertex 15.12815358417644 3.5603118126837403 53.896918226433044
      vertex 12.617608847236518 12.929792325618171 53.896918226433044
      vertex 15.00680330623444 3.527796103707889 53.545802957012654
    endloop
  endfacet
  facet normal -0.7758388985270496 -0.20788540631697466 0.5956993044924266
    outer loop
      vertex 14.453035614469906 3.3794144979051346 52.589305520178144
      vertex 14.667611017801677 3.436909803943466 52.88883311452551
      vertex 12.15706628086796 12.80639031685474 52.88883311452551
    endloop
  endfacet
  facet normal -0.8731866049167194 -0.23396964562910877 0.4275550934303113
    outer loop
      vertex 15.00680330623444 3.527796103707889 53.545802957012654
      vertex 12.496258569296153 12.89727661663622 53.545802957012654
      vertex 14.852794721823665 3.486529627887561 53.20869240006121
    endloop
  endfacet
  facet normal -0.8285022163462911 -0.22199649979738403 0.5141027441932144
    outer loop
      vertex 14.667611017801677 3.436909803943466 52.88883311452551
      vertex 14.852794721823665 3.486529627887561 53.20869240006121
      vertex 12.342249984887452 12.856010140808149 53.20869240006121
    endloop
  endfacet
  facet normal 0.7157038279983103 0.19177226273201034 0.671558954847011
    outer loop
      vertex 9.020238455880412 1.923700886618982 52.31299423149112
      vertex 6.50969371902278 11.2931813992463 52.31299423149112
      vertex 8.778337831671793 1.858883809713698 52.589305520178144
    endloop
  endfacet
  facet normal 0.6486761383624239 0.17381224742355061 0.7409511253549642
    outer loop
      vertex 9.287134665718428 1.995215510508006 52.0625602772216
      vertex 6.776589928857201 11.364696023148744 52.0625602772216
      vertex 9.020238455880412 1.923700886618982 52.31299423149112
    endloop
  endfacet
  facet normal 0.5754013429116704 0.1541783251569656 0.8032075314806499
    outer loop
      vertex 9.576456104784784 2.0727389564588465 51.84041547325033
      vertex 7.065911367919659 11.44221946911413 51.84041547325033
      vertex 9.287134665718428 1.995215510508006 52.0625602772216
    endloop
  endfacet
  facet normal 0.49658511798231125 0.1330595813366741 0.8577286100002744
    outer loop
      vertex 9.885416449462086 2.155524631308371 51.648699195476254
      vertex 7.374871712592799 11.52500514397919 51.648699195476254
      vertex 9.576456104784784 2.0727389564588465 51.84041547325033
    endloop
  endfacet
  facet normal 0.4129865069057578 0.11065940101034796 0.9039892931234371
    outer loop
      vertex 10.211040242736182 2.2427752637525242 51.48925777645711
      vertex 7.700495505862509 11.612255776439717 51.48925777645711
      vertex 9.885416449462086 2.155524631308371 51.648699195476254
    endloop
  endfacet
  facet normal 0.32541061000627075 0.0871935101596993 0.9415440651830255
    outer loop
      vertex 10.550191549473775 2.3336505825048217 51.36362672421761
      vertex 8.03964681259553 11.703131095209066 51.36362672421761
      vertex 10.211040242736182 2.2427752637525242 51.48925777645711
    endloop
  endfacet
  facet normal 0.23470083104494255 0.06288789814140569 0.9700312531945399
    outer loop
      vertex 10.899604157192018 2.427275408568178 51.27301593446772
      vertex 8.389059420309067 11.796755921289993 51.27301593446772
      vertex 10.550191549473775 2.3336505825048217 51.36362672421761
    endloop
  endfacet
  facet normal 0.14173075478006478 0.037976641285971835 0.9891765099647837
    outer loop
      vertex 11.255913031470223 2.5227480836870653 51.218298038645656
      vertex 8.745368294582471 11.892228596426795 51.218298038645656
      vertex 10.899604157192018 2.427275408568178 51.27301593446772
    endloop
  endfacet
  facet normal 0.0473957338687978 0.012699648614824786 0.9987954562051723
    outer loop
      vertex 11.255913031470223 2.5227480836870653 51.218298038645656
      vertex 11.615686723070853 2.6191491538094183 51.2
      vertex 9.105141986178253 11.988629666567238 51.2
    endloop
  endfacet
  facet normal -0.04739573386879876 -0.012699648614825036 0.9987954562051722
    outer loop
      vertex 11.615686723070853 2.6191491538094183 51.2
      vertex 11.975460414671476 2.7155502239317686 51.218298038645656
      vertex 9.46491567777403 12.085030736707678 51.218298038645656
    endloop
  endfacet
  facet normal -0.1417307547800648 -0.037976641285971856 0.9891765099647837
    outer loop
      vertex 11.975460414671476 2.7155502239317686 51.218298038645656
      vertex 12.331769288949681 2.8110228990506556 51.27301593446772
      vertex 9.821224552047434 12.18050341184448 51.27301593446772
    endloop
  endfacet
  facet normal -0.32541061000627214 -0.08719351015969969 0.9415440651830249
    outer loop
      vertex 12.681181896667924 2.904647725114012 51.36362672421761
      vertex 13.020333203405515 2.9955230438663096 51.48925777645711
      vertex 10.50978846649399 12.365003556694756 51.48925777645711
    endloop
  endfacet
  facet normal -0.5754013429116702 -0.15417832515696564 0.8032075314806502
    outer loop
      vertex 13.654917341356915 3.165559351159987 51.84041547325033
      vertex 13.944238780423271 3.2430827971108283 52.0625602772216
      vertex 11.433694043499298 12.612563309985731 52.0625602772216
    endloop
  endfacet
  facet normal -0.4129865069057562 -0.11065940101034774 0.9039892931234379
    outer loop
      vertex 13.020333203405515 2.9955230438663096 51.48925777645711
      vertex 13.345956996679613 3.0827736763104623 51.648699195476254
      vertex 10.8354122597637 12.452254189155282 51.648699195476254
    endloop
  endfacet
  facet normal -0.4965851179823113 -0.13305958133667406 0.8577286100002746
    outer loop
      vertex 13.345956996679613 3.0827736763104623 51.648699195476254
      vertex 13.654917341356915 3.165559351159987 51.84041547325033
      vertex 11.144372604436843 12.535039864020343 51.84041547325033
    endloop
  endfacet
  facet normal -0.2347008310449424 -0.06288789814140569 0.9700312531945399
    outer loop
      vertex 12.331769288949681 2.8110228990506556 51.27301593446772
      vertex 12.681181896667924 2.904647725114012 51.36362672421761
      vertex 10.17063715976097 12.274128237925407 51.36362672421761
    endloop
  endfacet
  facet normal -0.6486761383624242 -0.17381224742355067 0.740951125354964
    outer loop
      vertex 13.944238780423271 3.2430827971108283 52.0625602772216
      vertex 14.211134990261288 3.3145974209998514 52.31299423149112
      vertex 11.700590253333722 12.684077933888174 52.31299423149112
    endloop
  endfacet
  facet normal -0.7157038279983107 -0.19177226273201037 0.6715589548470107
    outer loop
      vertex 14.211134990261288 3.3145974209998514 52.31299423149112
      vertex 14.453035614469906 3.3794144979051346 52.589305520178144
      vertex 11.94249087753908 12.74889501080562 52.589305520178144
    endloop
  endfacet
  facet normal 0.828502216346292 0.22199649979738423 -0.5141027441932129
    outer loop
      vertex 8.563762428340022 1.8013885036753678 57.11116688547449
      vertex 5.868033987469048 11.121249192326326 56.79130759993879
      vertex 6.05321769148854 11.170869016279733 57.11116688547449
    endloop
  endfacet
  facet normal 0.7758388985270499 0.20788540631697477 -0.5956993044924259
    outer loop
      vertex 8.778337831671793 1.8588838097136982 57.410694479821856
      vertex 6.05321769148854 11.170869016279733 57.11116688547449
      vertex 6.267793094817421 11.228364322328853 57.410694479821856
    endloop
  endfacet
  facet normal 0.5754013429116722 0.1541783251569661 -0.8032075314806485
    outer loop
      vertex 9.576456104784784 2.0727389564588465 58.15958452674967
      vertex 6.776589928857202 11.364696023148744 57.9374397227784
      vertex 7.065911367919659 11.44221946911413 58.15958452674967
    endloop
  endfacet
  facet normal 0.4965851179823119 0.13305958133667428 -0.8577286100002741
    outer loop
      vertex 9.885416449462086 2.1555246313083707 58.351300804523746
      vertex 7.065911367919659 11.44221946911413 58.15958452674967
      vertex 7.374871712592799 11.52500514397919 58.351300804523746
    endloop
  endfacet
  facet normal 0.4129865069057552 0.11065940101034737 -0.9039892931234383
    outer loop
      vertex 10.211040242736184 2.2427752637525247 58.51074222354289
      vertex 7.374871712592799 11.52500514397919 58.351300804523746
      vertex 7.700495505862509 11.612255776439717 58.51074222354289
    endloop
  endfacet
  facet normal 0.6486761383624217 0.17381224742354998 -0.7409511253549663
    outer loop
      vertex 9.287134665718428 1.995215510508006 57.9374397227784
      vertex 6.50969371902278 11.293181399246299 57.68700576850888
      vertex 6.776589928857202 11.364696023148744 57.9374397227784
    endloop
  endfacet
  facet normal 0.7157038279983103 0.19177226273201042 -0.6715589548470112
    outer loop
      vertex 9.020238455880412 1.923700886618982 57.68700576850888
      vertex 6.267793094817421 11.228364322328853 57.410694479821856
      vertex 6.50969371902278 11.293181399246299 57.68700576850888
    endloop
  endfacet
  facet normal 0.32541061000627347 0.08719351015970002 -0.9415440651830245
    outer loop
      vertex 10.550191549473775 2.3336505825048217 58.63637327578239
      vertex 7.700495505862509 11.612255776439717 58.51074222354289
      vertex 8.03964681259553 11.703131095209066 58.63637327578239
    endloop
  endfacet
  facet normal 0.2347008310449413 0.06288789814140539 -0.9700312531945402
    outer loop
      vertex 10.899604157192018 2.427275408568178 58.72698406553228
      vertex 8.03964681259553 11.703131095209066 58.63637327578239
      vertex 8.389059420309067 11.796755921289991 58.72698406553228
    endloop
  endfacet
  facet normal 0.141730754780065 0.03797664128597189 -0.9891765099647837
    outer loop
      vertex 11.255913031470223 2.5227480836870653 58.781701961354344
      vertex 8.389059420309067 11.796755921289991 58.72698406553228
      vertex 8.745368294582471 11.892228596426795 58.781701961354344
    endloop
  endfacet
  facet normal 0.04739573386879781 0.012699648614824784 -0.9987954562051723
    outer loop
      vertex 11.615686723070853 2.619149153809418 58.8
      vertex 8.745368294582471 11.892228596426795 58.781701961354344
      vertex 9.105141986178253 11.988629666567238 58.8
    endloop
  endfacet
  facet normal -0.04739573386879864 -0.012699648614824999 -0.9987954562051722
    outer loop
      vertex 9.46491567777403 12.085030736707678 58.781701961354344
      vertex 11.975460414671476 2.715550223931768 58.781701961354344
      vertex 9.105141986178253 11.988629666567238 58.8
    endloop
  endfacet
  facet normal -0.1417307547800652 -0.03797664128597196 -0.9891765099647836
    outer loop
      vertex 9.821224552047434 12.18050341184448 58.72698406553228
      vertex 12.331769288949681 2.8110228990506565 58.72698406553228
      vertex 9.46491567777403 12.085030736707678 58.781701961354344
    endloop
  endfacet
  facet normal -0.2347008310449424 -0.0628878981414057 -0.9700312531945399
    outer loop
      vertex 10.17063715976097 12.274128237925405 58.63637327578239
      vertex 12.681181896667924 2.9046477251140126 58.63637327578239
      vertex 9.821224552047434 12.18050341184448 58.72698406553228
    endloop
  endfacet
  facet normal -0.325410610006273 -0.08719351015969992 -0.9415440651830245
    outer loop
      vertex 10.50978846649399 12.365003556694756 58.51074222354289
      vertex 13.020333203405515 2.995523043866309 58.51074222354289
      vertex 10.17063715976097 12.274128237925405 58.63637327578239
    endloop
  endfacet
  facet normal -0.4129865069057566 -0.11065940101034784 -0.9039892931234377
    outer loop
      vertex 10.8354122597637 12.452254189155282 58.351300804523746
      vertex 13.345956996679613 3.0827736763104623 58.351300804523746
      vertex 10.50978846649399 12.365003556694756 58.51074222354289
    endloop
  endfacet
  facet normal 0.8285022163462918 0.22199649979738414 0.5141027441932131
    outer loop
      vertex 8.378578724318034 1.7517686797312724 53.20869240006121
      vertex 6.05321769148854 11.170869016279733 52.88883311452551
      vertex 5.868033987469048 11.121249192326326 53.20869240006121
    endloop
  endfacet
  facet normal 0.7758388985270498 0.20788540631697477 0.5956993044924261
    outer loop
      vertex 8.563762428340022 1.8013885036753678 52.88883311452551
      vertex 6.267793094817421 11.228364322328853 52.589305520178144
      vertex 6.05321769148854 11.170869016279733 52.88883311452551
    endloop
  endfacet
  facet normal -0.49658511798230875 -0.13305958133667342 -0.8577286100002761
    outer loop
      vertex 11.144372604436843 12.53503986402034 58.15958452674967
      vertex 13.654917341356915 3.165559351159987 58.15958452674967
      vertex 10.8354122597637 12.452254189155282 58.351300804523746
    endloop
  endfacet
  facet normal -0.575401342911671 -0.15417832515696578 -0.8032075314806495
    outer loop
      vertex 11.4336940434993 12.612563309985731 57.9374397227784
      vertex 13.944238780423271 3.2430827971108274 57.9374397227784
      vertex 11.144372604436843 12.53503986402034 58.15958452674967
    endloop
  endfacet
  facet normal -0.6486761383624214 -0.1738122474235499 -0.7409511253549665
    outer loop
      vertex 11.700590253333722 12.684077933888174 57.68700576850888
      vertex 14.211134990261288 3.314597420999852 57.68700576850888
      vertex 11.4336940434993 12.612563309985731 57.9374397227784
    endloop
  endfacet
  facet normal -0.7157038279983107 -0.19177226273201034 -0.6715589548470107
    outer loop
      vertex 11.94249087753908 12.748895010805622 57.410694479821856
      vertex 14.453035614469906 3.3794144979051355 57.410694479821856
      vertex 11.700590253333722 12.684077933888174 57.68700576850888
    endloop
  endfacet
  facet normal -0.7758388985270517 -0.20788540631697522 -0.5956993044924238
    outer loop
      vertex 12.15706628086796 12.80639031685474 57.11116688547449
      vertex 14.667611017801677 3.436909803943466 57.11116688547449
      vertex 11.94249087753908 12.748895010805622 57.410694479821856
    endloop
  endfacet
  facet normal -0.828502216346292 -0.22199649979738428 -0.5141027441932131
    outer loop
      vertex 12.342249984887452 12.856010140808147 56.79130759993879
      vertex 14.852794721823665 3.486529627887562 56.79130759993879
      vertex 12.15706628086796 12.80639031685474 57.11116688547449
    endloop
  endfacet
  facet normal -0.8731866049167192 -0.2339696456291087 -0.4275550934303117
    outer loop
      vertex 15.00680330623444 3.5277961037078893 56.454197042987346
      vertex 12.342249984887452 12.856010140808147 56.79130759993879
      vertex 12.496258569296153 12.89727661663622 56.454197042987346
    endloop
  endfacet
  facet normal -0.9094617291494865 -0.24368953587261732 -0.3368898533921947
    outer loop
      vertex 15.12815358417644 3.5603118126837403 56.103081773566956
      vertex 12.496258569296153 12.89727661663622 56.454197042987346
      vertex 12.617608847236518 12.929792325618171 56.103081773566956
    endloop
  endfacet
  facet normal -0.936978239768154 -0.25106256267141175 -0.24298017990329016
    outer loop
      vertex 15.21567688613631 3.5837636107627926 55.74134322366129
      vertex 12.617608847236518 12.929792325618171 56.103081773566956
      vertex 12.705132149195208 12.953244123701625 55.74134322366129
    endloop
  endfacet
  facet normal -0.9554711377334704 -0.2560177197469294 -0.14673047445534473
    outer loop
      vertex 15.268530314871038 3.597925644309479 55.372465133252334
      vertex 12.705132149195208 12.953244123701625 55.74134322366129
      vertex 12.757985577929224 12.967406157250968 55.372465133252334
    endloop
  endfacet
  facet normal -0.9647623263287481 -0.2585072862277593 -0.04906767432741637
    outer loop
      vertex 15.286204862969308 3.6026615251989953 55
      vertex 12.757985577929224 12.967406157250968 55.372465133252334
      vertex 12.775660126027256 12.972142038141373 55
    endloop
  endfacet
  facet normal -0.964762326328748 -0.2585072862277593 0.0490676743274169
    outer loop
      vertex 15.268530314871038 3.5979256443094787 54.627534866747666
      vertex 12.775660126027256 12.972142038141373 55
      vertex 12.757985577929224 12.967406157250968 54.627534866747666
    endloop
  endfacet
  facet normal -0.775838898527051 -0.20788540631697497 0.5956993044924247
    outer loop
      vertex 12.15706628086796 12.80639031685474 52.88883311452551
      vertex 11.94249087753908 12.74889501080562 52.589305520178144
      vertex 14.453035614469906 3.3794144979051346 52.589305520178144
    endloop
  endfacet
  facet normal -0.9554711377334699 -0.2560177197469295 0.14673047445534612
    outer loop
      vertex 15.215676886136311 3.583763610762792 54.25865677633871
      vertex 12.757985577929224 12.967406157250968 54.627534866747666
      vertex 12.705132149195208 12.953244123701623 54.25865677633871
    endloop
  endfacet
  facet normal -0.9094617291494861 -0.24368953587261724 0.336889853392196
    outer loop
      vertex 15.00680330623444 3.527796103707889 53.545802957012654
      vertex 12.617608847236518 12.929792325618171 53.896918226433044
      vertex 12.496258569296153 12.89727661663622 53.545802957012654
    endloop
  endfacet
  facet normal -0.9369782397681539 -0.2510625626714117 0.24298017990329066
    outer loop
      vertex 15.12815358417644 3.5603118126837403 53.896918226433044
      vertex 12.705132149195208 12.953244123701623 54.25865677633871
      vertex 12.617608847236518 12.929792325618171 53.896918226433044
    endloop
  endfacet
  facet normal -0.8731866049167197 -0.23396964562910888 0.4275550934303107
    outer loop
      vertex 14.852794721823665 3.486529627887561 53.20869240006121
      vertex 12.496258569296153 12.89727661663622 53.545802957012654
      vertex 12.342249984887452 12.856010140808149 53.20869240006121
    endloop
  endfacet
  facet normal -0.8285022163462914 -0.22199649979738406 0.514102744193214
    outer loop
      vertex 12.342249984887452 12.856010140808149 53.20869240006121
      vertex 12.15706628086796 12.80639031685474 52.88883311452551
      vertex 14.667611017801677 3.436909803943466 52.88883311452551
    endloop
  endfacet
  facet normal 0.7157038279983097 0.19177226273201023 0.6715589548470117
    outer loop
      vertex 8.778337831671793 1.858883809713698 52.589305520178144
      vertex 6.50969371902278 11.2931813992463 52.31299423149112
      vertex 6.267793094817421 11.228364322328853 52.589305520178144
    endloop
  endfacet
  facet normal 0.6486761383624239 0.17381224742355067 0.7409511253549642
    outer loop
      vertex 9.020238455880412 1.923700886618982 52.31299423149112
      vertex 6.776589928857201 11.364696023148744 52.0625602772216
      vertex 6.50969371902278 11.2931813992463 52.31299423149112
    endloop
  endfacet
  facet normal 0.5754013429116709 0.1541783251569657 0.8032075314806495
    outer loop
      vertex 9.287134665718428 1.995215510508006 52.0625602772216
      vertex 7.065911367919659 11.44221946911413 51.84041547325033
      vertex 6.776589928857201 11.364696023148744 52.0625602772216
    endloop
  endfacet
  facet normal 0.49658511798231125 0.1330595813366741 0.8577286100002744
    outer loop
      vertex 9.576456104784784 2.0727389564588465 51.84041547325033
      vertex 7.374871712592799 11.52500514397919 51.648699195476254
      vertex 7.065911367919659 11.44221946911413 51.84041547325033
    endloop
  endfacet
  facet normal 0.4129865069057552 0.11065940101034741 0.9039892931234383
    outer loop
      vertex 9.885416449462086 2.155524631308371 51.648699195476254
      vertex 7.700495505862509 11.612255776439717 51.48925777645711
      vertex 7.374871712592799 11.52500514397919 51.648699195476254
    endloop
  endfacet
  facet normal 0.32541061000627325 0.08719351015969987 0.9415440651830245
    outer loop
      vertex 10.211040242736182 2.2427752637525242 51.48925777645711
      vertex 8.03964681259553 11.703131095209066 51.36362672421761
      vertex 7.700495505862509 11.612255776439717 51.48925777645711
    endloop
  endfacet
  facet normal 0.23470083104494105 0.06288789814140536 0.9700312531945403
    outer loop
      vertex 10.550191549473775 2.3336505825048217 51.36362672421761
      vertex 8.389059420309067 11.796755921289993 51.27301593446772
      vertex 8.03964681259553 11.703131095209066 51.36362672421761
    endloop
  endfacet
  facet normal 0.1417307547800652 0.03797664128597194 0.9891765099647837
    outer loop
      vertex 10.899604157192018 2.427275408568178 51.27301593446772
      vertex 8.745368294582471 11.892228596426795 51.218298038645656
      vertex 8.389059420309067 11.796755921289993 51.27301593446772
    endloop
  endfacet
  facet normal 0.04739573386879793 0.012699648614824815 0.9987954562051723
    outer loop
      vertex 11.255913031470223 2.5227480836870653 51.218298038645656
      vertex 9.105141986178253 11.988629666567238 51.2
      vertex 8.745368294582471 11.892228596426795 51.218298038645656
    endloop
  endfacet
  facet normal -0.047395733868798626 -0.012699648614825006 0.9987954562051721
    outer loop
      vertex 9.46491567777403 12.085030736707678 51.218298038645656
      vertex 9.105141986178253 11.988629666567238 51.2
      vertex 11.615686723070853 2.6191491538094183 51.2
    endloop
  endfacet
  facet normal -0.41298650690575656 -0.11065940101034782 0.9039892931234377
    outer loop
      vertex 10.8354122597637 12.452254189155282 51.648699195476254
      vertex 10.50978846649399 12.365003556694756 51.48925777645711
      vertex 13.020333203405515 2.9955230438663096 51.48925777645711
    endloop
  endfacet
  facet normal -0.14173075478006517 -0.03797664128597193 0.9891765099647836
    outer loop
      vertex 9.821224552047434 12.18050341184448 51.27301593446772
      vertex 9.46491567777403 12.085030736707678 51.218298038645656
      vertex 11.975460414671476 2.7155502239317686 51.218298038645656
    endloop
  endfacet
  facet normal -0.2347008310449421 -0.06288789814140563 0.97003125319454
    outer loop
      vertex 10.17063715976097 12.274128237925407 51.36362672421761
      vertex 9.821224552047434 12.18050341184448 51.27301593446772
      vertex 12.331769288949681 2.8110228990506556 51.27301593446772
    endloop
  endfacet
  facet normal -0.3254106100062734 -0.08719351015969996 0.9415440651830244
    outer loop
      vertex 10.50978846649399 12.365003556694756 51.48925777645711
      vertex 10.17063715976097 12.274128237925407 51.36362672421761
      vertex 12.681181896667924 2.904647725114012 51.36362672421761
    endloop
  endfacet
  facet normal -0.49658511798230826 -0.1330595813366734 0.8577286100002764
    outer loop
      vertex 11.144372604436843 12.535039864020343 51.84041547325033
      vertex 10.8354122597637 12.452254189155282 51.648699195476254
      vertex 13.345956996679613 3.0827736763104623 51.648699195476254
    endloop
  endfacet
  facet normal -0.5754013429116738 -0.15417832515696644 0.8032075314806474
    outer loop
      vertex 11.433694043499298 12.612563309985731 52.0625602772216
      vertex 11.144372604436843 12.535039864020343 51.84041547325033
      vertex 13.654917341356915 3.165559351159987 51.84041547325033
    endloop
  endfacet
  facet normal -0.7157038279983112 -0.1917722627320105 0.6715589548470101
    outer loop
      vertex 11.94249087753908 12.74889501080562 52.589305520178144
      vertex 11.700590253333722 12.684077933888174 52.31299423149112
      vertex 14.211134990261288 3.3145974209998514 52.31299423149112
    endloop
  endfacet
  facet normal -0.6486761383624191 -0.1738122474235496 0.7409511253549687
    outer loop
      vertex 11.700590253333722 12.684077933888174 52.31299423149112
      vertex 11.433694043499298 12.612563309985731 52.0625602772216
      vertex 13.944238780423271 3.2430827971108283 52.0625602772216
    endloop
  endfacet
  facet normal -1 0 0
    outer loop
      vertex 0 -28.977774791419506 70
      vertex 0 9.548914223909378 70
      vertex 0 9.548914223909378 62
    endloop
  endfacet
  facet normal -1 0 0
    outer loop
      vertex 0 -28.977774791419506 70
      vertex 0 9.548914223909378 62
      vertex 0 -28.977774791419506 0
    endloop
  endfacet
  facet normal -1 0 0
    outer loop
      vertex 0 9.548914223909378 70
      vertex 0 45 62
      vertex 0 9.548914223909378 62
    endloop
  endfacet
  facet normal -1 0 0
    outer loop
      vertex 0 9.548914223909378 70
      vertex 0 45 70
      vertex 0 45 62
    endloop
  endfacet
  facet normal -1 0 0
    outer loop
      vertex 0 9.548914223909378 62
      vertex 0 -25.69148797032852 0.6823917455836295
      vertex 0 -28.977774791419506 0
    endloop
  endfacet
  facet normal -1 0 0
    outer loop
      vertex 0 9.548914223909378 62
      vertex 0 -18.041988410592875 2.270797031424223
      vertex 0 -25.69148797032852 0.6823917455836295
    endloop
  endfacet
  facet normal -1 0 0
    outer loop
      vertex 0 9.548914223909378 8
      vertex 0 -18.041988410592875 2.270797031424223
      vertex 0 9.548914223909378 62
    endloop
  endfacet
  facet normal -1 0 0
    outer loop
      vertex 0 -25.69148797032852 0.6823917455836295
      vertex 0 -26.40117166696403 0
      vertex 0 -28.977774791419506 0
    endloop
  endfacet
  facet normal -1 0 0
    outer loop
      vertex 0 9.548914223909378 0
      vertex 0 -20.466288276608047 0
      vertex 0 -18.041988410592875 2.270797031424223
    endloop
  endfacet
  facet normal -1 0 0
    outer loop
      vertex 0 9.548914223909378 8
      vertex 0 9.548914223909378 0
      vertex 0 -18.041988410592875 2.270797031424223
    endloop
  endfacet
  facet normal -1 0 0
    outer loop
      vertex 0 9.548914223909378 8
      vertex 0 45 0
      vertex 0 9.548914223909378 0
    endloop
  endfacet
  facet normal -1 0 0
    outer loop
      vertex 0 9.548914223909378 8
      vertex 0 45 8
      vertex 0 45 0
    endloop
  endfacet
endsolid OpenSCAD_Model
